<svg width="61" height="36" viewBox="0 0 61 36" fill="none" xmlns="http://www.w3.org/2000/svg">
<rect x="8.18933" y="16.3933" width="50.921" height="9.63171" fill="#0B2C62" stroke="#0B2C62"/>
<path d="M11.2836 31.9646L8.52527 28.3443H28.1782L25.9371 31.9646H11.2836Z" fill="#E8E6ED" stroke="#0B2C62"/>
<path d="M40.9745 31.7827L38.2162 28.1624H57.8692L55.628 31.7827H40.9745Z" fill="#E8E6ED" stroke="#0B2C62"/>
<circle cx="14.2551" cy="32.4489" r="3" fill="#0B2C62" stroke="#0B2C62"/>
<circle cx="43.946" cy="32.2669" r="3" fill="#0B2C62" stroke="#0B2C62"/>
<circle cx="22.4484" cy="32.4489" r="3" fill="#0B2C62" stroke="#0B2C62"/>
<circle cx="52.1393" cy="32.2669" r="3" fill="#0B2C62" stroke="#0B2C62"/>
<rect x="21.4261" y="31.9648" width="2.04443" height="0.968384" fill="white"/>
<rect x="51.1171" y="31.7827" width="2.04443" height="0.968384" fill="white"/>
<rect x="13.2329" y="31.9648" width="2.04443" height="0.968384" fill="white"/>
<rect x="42.9238" y="31.7827" width="2.04443" height="0.968384" fill="white"/>
<rect x="59.6102" y="5.82092" width="10.6922" height="2.70605" transform="rotate(90 59.6102 5.82092)" fill="#15386C"/>
<rect x="6.13416" y="26.1115" width="54.1947" height="3.18713" fill="#E8E6ED" stroke="#0B2C62"/>
<rect x="0.731323" y="9.40494" width="15" height="11" fill="#15386C"/>
<rect x="0.731323" y="9.40494" width="15" height="11" stroke="#0B2C62"/>
<rect width="8" height="1" transform="matrix(0 -1 1 0 19.8285 26.147)" fill="white"/>
<rect width="8" height="2" transform="matrix(0 -1 1 0 22.8285 26.147)" fill="white"/>
<rect width="8" height="1" transform="matrix(0 -1 1 0 26.8285 26.147)" fill="white"/>
<rect width="8" height="2" transform="matrix(0 -1 1 0 29.8285 26.147)" fill="white"/>
<rect width="8" height="1" transform="matrix(0 -1 1 0 33.8285 26.147)" fill="white"/>
<rect width="8" height="2" transform="matrix(0 -1 1 0 36.8285 26.147)" fill="white"/>
<rect width="8" height="1" transform="matrix(0 -1 1 0 40.8285 26.147)" fill="white"/>
<rect width="8" height="2" transform="matrix(0 -1 1 0 43.8285 26.147)" fill="white"/>
<rect width="8" height="1" transform="matrix(0 -1 1 0 47.8285 26.147)" fill="white"/>
<rect width="8" height="2" transform="matrix(0 -1 1 0 50.8285 26.147)" fill="white"/>
</svg>
