<svg width="61" height="36" viewBox="0 0 61 36" fill="none" xmlns="http://www.w3.org/2000/svg">
<rect x="8.36035" y="15.5249" width="50.921" height="9.63171" fill="#FFBEFC" stroke="#B5457C"/>
<path d="M11.4546 31.0962L8.69629 27.4758H28.3493L26.1081 31.0962H11.4546Z" fill="#E8E6ED" stroke="#B1ADC2"/>
<path d="M41.1455 30.9143L38.3872 27.2939H58.0402L55.7991 30.9143H41.1455Z" fill="#E8E6ED" stroke="#B1ADC2"/>
<circle cx="14.4263" cy="31.5804" r="3" fill="#B1ADC2" stroke="#B1ADC2"/>
<circle cx="44.1172" cy="31.3984" r="3" fill="#B1ADC2" stroke="#B1ADC2"/>
<circle cx="22.6194" cy="31.5804" r="3" fill="#B1ADC2" stroke="#B1ADC2"/>
<circle cx="52.3103" cy="31.3984" r="3" fill="#B1ADC2" stroke="#B1ADC2"/>
<rect x="21.5972" y="31.0963" width="2.04443" height="0.968384" fill="white"/>
<rect x="51.2881" y="30.9143" width="2.04443" height="0.968384" fill="white"/>
<rect x="13.4038" y="31.0963" width="2.04443" height="0.968384" fill="white"/>
<rect x="43.0947" y="30.9143" width="2.04443" height="0.968384" fill="white"/>
<rect x="6.30518" y="25.243" width="54.1947" height="3.18713" fill="#E8E6ED" stroke="#B1ADC2"/>
<rect x="0.902344" y="8.5365" width="15" height="11" fill="#FFBEFC"/>
<rect x="0.902344" y="8.5365" width="15" height="11" stroke="#B5457C"/>
<rect width="34" height="1" transform="translate(20.7075 17.5804)" fill="#B5457C"/>
<rect width="34" height="2" transform="translate(20.7075 20.5804)" fill="#B5457C"/>
</svg>
