<svg width="61" height="36" viewBox="0 0 61 36" fill="none" xmlns="http://www.w3.org/2000/svg">
<rect x="8.36047" y="15.5249" width="50.921" height="9.63171" fill="#ABABAB" stroke="#6E6E6D"/>
<path d="M11.4547 31.0962L8.69641 27.4759H28.3494L26.1083 31.0962H11.4547Z" fill="#E8E6ED" stroke="#B1ADC2"/>
<path d="M41.1456 30.9143L38.3873 27.294H58.0403L55.7992 30.9143H41.1456Z" fill="#E8E6ED" stroke="#B1ADC2"/>
<circle cx="14.4263" cy="31.5805" r="3" fill="#B1ADC2" stroke="#B1ADC2"/>
<circle cx="44.1172" cy="31.3985" r="3" fill="#B1ADC2" stroke="#B1ADC2"/>
<circle cx="22.6195" cy="31.5805" r="3" fill="#B1ADC2" stroke="#B1ADC2"/>
<circle cx="52.3104" cy="31.3985" r="3" fill="#B1ADC2" stroke="#B1ADC2"/>
<rect x="21.5973" y="31.0963" width="2.04443" height="0.968384" fill="white"/>
<rect x="51.2882" y="30.9143" width="2.04443" height="0.968384" fill="white"/>
<rect x="13.4041" y="31.0963" width="2.04443" height="0.968384" fill="white"/>
<rect x="43.095" y="30.9143" width="2.04443" height="0.968384" fill="white"/>
<rect x="59.7814" y="4.99451" width="10.6922" height="2.70605" transform="rotate(90 59.7814 4.99451)" fill="#6E6E6D"/>
<rect x="6.3053" y="25.2431" width="54.1947" height="3.18713" fill="#E8E6ED" stroke="#B1ADC2"/>
<rect x="0.902466" y="8.53653" width="15" height="11" fill="#ABABAB"/>
<rect x="0.902466" y="8.53653" width="15" height="11" stroke="#6E6E6D"/>
<rect width="34" height="1" transform="translate(20.7076 17.5804)" fill="#6E6E6D"/>
<rect width="34" height="2" transform="translate(20.7076 20.5804)" fill="#6E6E6D"/>
</svg>
