<svg width="61" height="36" viewBox="0 0 61 36" fill="none" xmlns="http://www.w3.org/2000/svg">
<path d="M54.7671 15.9824C54.7671 16.1602 54.6897 16.3757 54.4572 16.633C54.2221 16.8931 53.8519 17.1681 53.3334 17.4456C52.2973 18.0003 50.765 18.5153 48.8292 18.9536C44.9656 19.8285 39.6036 20.374 33.6638 20.374C27.7239 20.374 22.3619 19.8285 18.4983 18.9536C16.5625 18.5153 15.0302 18.0003 13.9941 17.4456C13.4757 17.1681 13.1054 16.8931 12.8703 16.633C12.6378 16.3757 12.5604 16.1602 12.5604 15.9824C12.5604 15.8045 12.6378 15.589 12.8703 15.3318C13.1054 15.0716 13.4757 14.7967 13.9941 14.5191C15.0302 13.9644 16.5625 13.4494 18.4983 13.0111C22.3619 12.1363 27.7239 11.5907 33.6638 11.5907C39.6036 11.5907 44.9656 12.1363 48.8292 13.0111C50.765 13.4494 52.2973 13.9644 53.3334 14.5191C53.8519 14.7967 54.2221 15.0716 54.4572 15.3318C54.6897 15.589 54.7671 15.8045 54.7671 15.9824Z" fill="#B1ADC2" stroke="#0B2C62"/>
<rect x="8.18982" y="15.8185" width="50.921" height="9.63171" fill="#0B2C62" stroke="#0B2C62"/>
<path d="M11.2836 31.7245L8.52527 28.1041H28.1782L25.9371 31.7245H11.2836Z" fill="white" stroke="#0B2C62"/>
<path d="M40.9745 31.5426L38.2162 27.9222H57.8692L55.628 31.5426H40.9745Z" fill="white" stroke="#0B2C62"/>
<circle cx="14.2551" cy="32.2087" r="3.5" fill="#0B2C62"/>
<circle cx="43.946" cy="32.0267" r="3.5" fill="#0B2C62"/>
<circle cx="22.4484" cy="32.2087" r="3.5" fill="#0B2C62"/>
<circle cx="52.1393" cy="32.0267" r="3.5" fill="#0B2C62"/>
<rect x="21.4261" y="31.7246" width="2.04443" height="0.968384" fill="white"/>
<rect x="51.1171" y="31.5426" width="2.04443" height="0.968384" fill="white"/>
<rect x="13.2329" y="31.7246" width="2.04443" height="0.968384" fill="white"/>
<rect x="42.9238" y="31.5426" width="2.04443" height="0.968384" fill="white"/>
<rect x="6.13416" y="25.8713" width="54.1947" height="3.18713" fill="white" stroke="#0B2C62"/>
<rect x="0.731812" y="9.83008" width="15" height="11" fill="#0B2C62"/>
<rect x="0.731812" y="9.83008" width="15" height="11" stroke="white"/>
<path d="M28.0286 9.46848C27.1086 9.46848 26.3319 9.28515 25.6986 8.91848L26.1686 7.96848C26.7886 8.29515 27.4286 8.45848 28.0886 8.45848C29.0286 8.45848 29.4986 8.08848 29.4986 7.34848C29.4986 6.55515 28.9153 6.15848 27.7486 6.15848H26.7886V5.13848H27.7386C28.7453 5.13848 29.2486 4.78848 29.2486 4.08848C29.2486 3.48181 28.8553 3.17848 28.0686 3.17848C27.5086 3.17848 26.8986 3.32848 26.2386 3.62848L25.8686 2.65848C26.6819 2.33181 27.4553 2.16848 28.1886 2.16848C29.6419 2.16848 30.3686 2.74848 30.3686 3.90848C30.3686 4.72181 29.9953 5.24181 29.2486 5.46848C29.0353 5.52848 28.8086 5.56515 28.5686 5.57848V5.61848C28.8353 5.61848 29.0653 5.63848 29.2586 5.67848C30.1586 5.87848 30.6086 6.46515 30.6086 7.43848C30.6086 8.79181 29.7486 9.46848 28.0286 9.46848ZM33.5241 4.54848C34.1974 4.54848 34.6874 4.70181 34.9941 5.00848C35.3074 5.30848 35.4641 5.78181 35.4641 6.42848V9.31848H34.4741C34.4741 9.03848 34.5207 8.79515 34.6141 8.58848L34.5741 8.56848C34.2274 9.16848 33.7107 9.46848 33.0241 9.46848C32.5307 9.46848 32.1274 9.32181 31.8141 9.02848C31.5074 8.72848 31.3541 8.33515 31.3541 7.84848C31.3541 7.34848 31.5074 6.95181 31.8141 6.65848C32.1207 6.36515 32.5274 6.21848 33.0341 6.21848C33.7274 6.21848 34.2374 6.47515 34.5641 6.98848L34.5941 6.96848C34.5607 6.84848 34.5341 6.63515 34.5141 6.32848C34.4741 5.74848 34.1174 5.45848 33.4441 5.45848C33.0774 5.45848 32.6341 5.54181 32.1141 5.70848L31.8441 4.82848C32.4107 4.64181 32.9707 4.54848 33.5241 4.54848ZM34.1341 7.25848C33.9407 7.10515 33.6941 7.02848 33.3941 7.02848C33.0941 7.02848 32.8507 7.10515 32.6641 7.25848C32.4841 7.41181 32.3941 7.61181 32.3941 7.85848C32.3941 8.10515 32.4841 8.30181 32.6641 8.44848C32.8441 8.59515 33.0841 8.66848 33.3841 8.66848C33.6907 8.66848 33.9407 8.59515 34.1341 8.44848C34.3341 8.29515 34.4341 8.09515 34.4341 7.84848C34.4341 7.60848 34.3341 7.41181 34.1341 7.25848ZM39.3438 4.54848C39.9972 4.54848 40.5338 4.77848 40.9538 5.23848C41.3738 5.69848 41.5838 6.28848 41.5838 7.00848C41.5838 7.72848 41.3738 8.31848 40.9538 8.77848C40.5338 9.23848 39.9972 9.46848 39.3438 9.46848C38.5505 9.46848 37.9838 9.11848 37.6438 8.41848L37.6038 8.42848C37.6638 8.64848 37.6938 8.97181 37.6938 9.39848V11.3185H36.7138V4.69848H37.6638C37.6638 5.12515 37.6438 5.42181 37.6038 5.58848L37.6438 5.59848C37.9905 4.89848 38.5572 4.54848 39.3438 4.54848ZM39.1538 5.46848C38.7138 5.46848 38.3538 5.61181 38.0738 5.89848C37.7938 6.18515 37.6538 6.55515 37.6538 7.00848C37.6538 7.46181 37.7938 7.83181 38.0738 8.11848C38.3538 8.40515 38.7138 8.54848 39.1538 8.54848C39.5872 8.54848 39.9272 8.41181 40.1738 8.13848C40.4205 7.86515 40.5438 7.48848 40.5438 7.00848C40.5438 6.52848 40.4205 6.15181 40.1738 5.87848C39.9272 5.60515 39.5872 5.46848 39.1538 5.46848Z" fill="#0B2C62"/>
<rect width="7" height="1" transform="matrix(0 -1 1 0 19.829 24.6141)" fill="white"/>
<rect width="7" height="2" transform="matrix(0 -1 1 0 22.829 24.6141)" fill="white"/>
<rect width="7" height="1" transform="matrix(0 -1 1 0 26.829 24.6141)" fill="white"/>
<rect width="7" height="2" transform="matrix(0 -1 1 0 29.829 24.6141)" fill="white"/>
<rect width="7" height="1" transform="matrix(0 -1 1 0 33.829 24.6141)" fill="white"/>
<rect width="7" height="2" transform="matrix(0 -1 1 0 36.829 24.6141)" fill="white"/>
<rect width="7" height="1" transform="matrix(0 -1 1 0 40.829 24.6141)" fill="white"/>
<rect width="7" height="2" transform="matrix(0 -1 1 0 43.829 24.6141)" fill="white"/>
<rect width="7" height="1" transform="matrix(0 -1 1 0 47.829 24.6141)" fill="white"/>
<rect width="7" height="2" transform="matrix(0 -1 1 0 50.829 24.6141)" fill="white"/>
</svg>
