<svg width="61" height="36" viewBox="0 0 61 36" fill="none" xmlns="http://www.w3.org/2000/svg">
<rect x="8.36719" y="15.4829" width="50.921" height="9.63171" fill="white" stroke="#B1ADC2"/>
<path d="M11.4614 31.0542L8.70312 27.4339H28.3561L26.115 31.0542H11.4614Z" fill="#E8E6ED" stroke="#B1ADC2"/>
<path d="M41.1523 30.8723L38.394 27.252H58.047L55.8059 30.8723H41.1523Z" fill="#E8E6ED" stroke="#B1ADC2"/>
<circle cx="14.4331" cy="31.5385" r="3" fill="#B1ADC2" stroke="#B1ADC2"/>
<circle cx="44.124" cy="31.3565" r="3" fill="#B1ADC2" stroke="#B1ADC2"/>
<circle cx="22.6262" cy="31.5385" r="3" fill="#B1ADC2" stroke="#B1ADC2"/>
<circle cx="52.3171" cy="31.3565" r="3" fill="#B1ADC2" stroke="#B1ADC2"/>
<rect x="21.604" y="31.0544" width="2.04443" height="0.968384" fill="white"/>
<rect x="51.2949" y="30.8723" width="2.04443" height="0.968384" fill="white"/>
<rect x="13.4106" y="31.0544" width="2.04443" height="0.968384" fill="white"/>
<rect x="43.1016" y="30.8723" width="2.04443" height="0.968384" fill="white"/>
<rect x="59.7881" y="4.99451" width="10.6922" height="2.70605" transform="rotate(90 59.7881 4.99451)" fill="#938DA9"/>
<rect x="6.31201" y="25.2011" width="54.1947" height="3.18713" fill="#E8E6ED" stroke="#B1ADC2"/>
<rect x="0.90918" y="8.49454" width="15" height="11" fill="#E8E6ED"/>
<rect x="0.90918" y="8.49454" width="15" height="11" stroke="#B1ADC2"/>
</svg>
