<svg width="61" height="36" viewBox="0 0 61 36" fill="none" xmlns="http://www.w3.org/2000/svg">
<rect x="8.1825" y="15.5331" width="50.921" height="9.63171" fill="#0B2C62" stroke="#0B2C62"/>
<path d="M11.2767 31.1044L8.51843 27.484H28.1714L25.9303 31.1044H11.2767Z" fill="#E8E6ED" stroke="#0B2C62"/>
<path d="M40.9677 30.9225L38.2094 27.3022H57.8623L55.6212 30.9225H40.9677Z" fill="#E8E6ED" stroke="#0B2C62"/>
<circle cx="14.2483" cy="31.5887" r="3" fill="#0B2C62" stroke="#0B2C62"/>
<circle cx="43.9392" cy="31.4066" r="3" fill="#0B2C62" stroke="#0B2C62"/>
<circle cx="22.4415" cy="31.5887" r="3" fill="#0B2C62" stroke="#0B2C62"/>
<circle cx="52.1324" cy="31.4066" r="3" fill="#0B2C62" stroke="#0B2C62"/>
<rect x="21.4193" y="31.1045" width="2.04443" height="0.968384" fill="white"/>
<rect x="51.1102" y="30.9225" width="2.04443" height="0.968384" fill="white"/>
<rect x="13.2261" y="31.1045" width="2.04443" height="0.968384" fill="white"/>
<rect x="42.917" y="30.9225" width="2.04443" height="0.968384" fill="white"/>
<rect x="59.6034" y="5.00269" width="10.6922" height="2.70605" transform="rotate(90 59.6034 5.00269)" fill="#15386C"/>
<rect x="6.12732" y="25.2513" width="54.1947" height="3.18713" fill="#E8E6ED" stroke="#0B2C62"/>
<rect x="0.724487" y="8.54471" width="15" height="11" fill="#15386C"/>
<rect x="0.724487" y="8.54471" width="15" height="11" stroke="#0B2C62"/>
<rect width="34" height="1" transform="translate(20.5297 17.5886)" fill="white"/>
<rect width="34" height="2" transform="translate(20.5297 20.5886)" fill="white"/>
</svg>
