<svg width="61" height="37" viewBox="0 0 61 37" fill="none" xmlns="http://www.w3.org/2000/svg">
<path d="M54.9376 8.23938C54.9376 9.05514 54.4587 9.90597 53.4242 10.7486C52.3936 11.588 50.8719 12.3661 48.9473 13.0291C45.1029 14.3535 39.7597 15.1816 33.8343 15.1816C27.9089 15.1816 22.5656 14.3535 18.7213 13.0291C16.7967 12.3661 15.275 11.588 14.2444 10.7486C13.2099 9.90597 12.731 9.05514 12.731 8.23938C12.731 7.42362 13.2099 6.57279 14.2444 5.7302C15.275 4.89079 16.7967 4.11265 18.7213 3.44964C22.5656 2.12528 27.9089 1.29712 33.8343 1.29712C39.7597 1.29712 45.1029 2.12528 48.9473 3.44964C50.8719 4.11265 52.3936 4.89079 53.4242 5.7302C54.4587 6.57279 54.9376 7.42362 54.9376 8.23938Z" fill="#FFBEFC" stroke="#B5457C"/>
<path d="M11.4546 32.0962L8.69629 28.4758H28.3493L26.1081 32.0962H11.4546Z" fill="#E8E6ED" stroke="#B1ADC2"/>
<path d="M41.1455 31.9143L38.3872 28.2939H58.0402L55.7991 31.9143H41.1455Z" fill="#E8E6ED" stroke="#B1ADC2"/>
<circle cx="14.4263" cy="32.5804" r="3" fill="#B1ADC2" stroke="#B1ADC2"/>
<circle cx="44.1171" cy="32.3984" r="3" fill="#B1ADC2" stroke="#B1ADC2"/>
<circle cx="22.6194" cy="32.5804" r="3" fill="#B1ADC2" stroke="#B1ADC2"/>
<circle cx="52.3103" cy="32.3984" r="3" fill="#B1ADC2" stroke="#B1ADC2"/>
<rect x="21.5972" y="32.0963" width="2.04443" height="0.968384" fill="white"/>
<rect x="51.2881" y="31.9143" width="2.04443" height="0.968384" fill="white"/>
<rect x="13.4038" y="32.0963" width="2.04443" height="0.968384" fill="white"/>
<rect x="43.0948" y="31.9143" width="2.04443" height="0.968384" fill="white"/>
<rect x="6.30518" y="26.243" width="54.1947" height="3.18713" fill="#E8E6ED" stroke="#B1ADC2"/>
<rect x="14.8896" y="11.7739" width="14.6898" height="1.11673" transform="rotate(100.267 14.8896 11.7739)" fill="#B5457C"/>
<path d="M11.791 9.21655V5.72504H56.8314V9.21655H55.6675V12.1261H53.4562V23.9973C50.3915 24.5792 42.3532 25.743 34.7185 25.743C27.0837 25.743 18.3472 24.5792 14.9333 23.9973V12.1261H12.722V9.21655H11.791Z" fill="#FFBEFC" stroke="#B5457C"/>
<rect width="14.2979" height="1.11673" transform="matrix(-0.178232 -0.983988 -0.983988 0.178232 57.2188 26.122)" fill="#B5457C"/>
<rect x="0.902344" y="9.5365" width="15" height="11" fill="#FFBEFC"/>
<rect x="0.902344" y="9.5365" width="15" height="11" stroke="#B5457C"/>
<path d="M25.2991 17.1149C25.0258 17.1149 24.7425 17.0982 24.4491 17.0649L24.4591 16.0549C24.7191 16.1016 24.9858 16.1249 25.2591 16.1249C25.6725 16.1249 26.0091 15.8416 26.2691 15.2749L23.6691 10.0249H24.9091L26.3891 13.2449C26.6425 13.7916 26.7858 14.1716 26.8191 14.3849H26.8591C26.8991 14.0182 27.0058 13.6282 27.1791 13.2149L28.5991 10.0249H29.7791L27.3191 15.4549C27.0791 16.0282 26.7958 16.4482 26.4691 16.7149C26.1491 16.9816 25.7591 17.1149 25.2991 17.1149ZM31.9181 17.1749C31.1648 17.1749 30.5515 16.9482 30.0781 16.4949C29.6115 16.0349 29.3781 15.4416 29.3781 14.7149C29.3781 13.9882 29.6115 13.3982 30.0781 12.9449C30.5515 12.4849 31.1648 12.2549 31.9181 12.2549C32.4981 12.2549 33.0248 12.4116 33.4981 12.7249L33.0381 13.5549C32.6848 13.3216 32.3015 13.2049 31.8881 13.2049C31.4548 13.2049 31.1015 13.3449 30.8281 13.6249C30.5548 13.9049 30.4181 14.2682 30.4181 14.7149C30.4181 15.1616 30.5548 15.5249 30.8281 15.8049C31.1015 16.0849 31.4548 16.2249 31.8881 16.2249C32.3015 16.2249 32.6848 16.1082 33.0381 15.8749L33.4981 16.7049C33.0248 17.0182 32.4981 17.1749 31.9181 17.1749ZM37.9061 17.0549C37.3928 17.0549 37.0761 16.8549 36.9561 16.4549L36.7261 15.6349C36.6661 15.4016 36.5894 15.2382 36.4961 15.1449C36.4028 15.0516 36.2628 15.0049 36.0761 15.0049H35.6461C35.5194 15.0049 35.4161 14.9982 35.3361 14.9849L35.3261 14.9949C35.3594 15.1016 35.3761 15.2416 35.3761 15.4149V17.0249H34.3961V12.4049H35.3761V13.8349C35.3761 13.9949 35.3594 14.1282 35.3261 14.2349L35.3361 14.2449C35.4161 14.2316 35.5194 14.2249 35.6461 14.2249H36.0761C36.2694 14.2249 36.4061 14.1916 36.4861 14.1249C36.5661 14.0516 36.6494 13.8982 36.7361 13.6649L37.0761 12.8449C37.2028 12.5316 37.5028 12.3749 37.9761 12.3749H38.4661V13.2549H38.2561C38.1094 13.2549 37.9994 13.2782 37.9261 13.3249C37.8594 13.3716 37.7961 13.4649 37.7361 13.6049L37.5761 14.0249C37.4494 14.3982 37.1228 14.5882 36.5961 14.5949V14.6349C36.8894 14.6416 37.1094 14.6916 37.2561 14.7849C37.4094 14.8716 37.5161 15.0216 37.5761 15.2349L37.7661 15.8849C37.8061 16.0116 37.8528 16.0916 37.9061 16.1249C37.9661 16.1582 38.0761 16.1749 38.2361 16.1749H38.4861V17.0549H37.9061ZM41.2075 10.1249C41.9142 10.1249 42.4842 10.3549 42.9175 10.8149C43.3508 11.2749 43.5675 11.8816 43.5675 12.6349C43.5675 13.1282 43.4775 13.5849 43.2975 14.0049C43.1242 14.4249 42.8342 14.8716 42.4275 15.3449L41.0575 17.0249H39.8875L41.7575 14.7549C42.0908 14.3482 42.3108 14.0382 42.4175 13.8249L42.3775 13.8049C42.0175 14.3649 41.5275 14.6449 40.9075 14.6449C40.3208 14.6449 39.8275 14.4316 39.4275 14.0049C39.0342 13.5782 38.8375 13.0482 38.8375 12.4149C38.8375 11.7416 39.0575 11.1916 39.4975 10.7649C39.9375 10.3382 40.5075 10.1249 41.2075 10.1249ZM41.1875 11.0249C40.7808 11.0249 40.4575 11.1482 40.2175 11.3949C39.9775 11.6416 39.8575 11.9749 39.8575 12.3949C39.8575 12.8082 39.9742 13.1316 40.2075 13.3649C40.4475 13.5982 40.7742 13.7149 41.1875 13.7149C41.6142 13.7149 41.9475 13.5982 42.1875 13.3649C42.4275 13.1316 42.5475 12.8082 42.5475 12.3949C42.5475 11.9682 42.4275 11.6349 42.1875 11.3949C41.9475 11.1482 41.6142 11.0249 41.1875 11.0249Z" fill="#2F2E34"/>
<rect width="34" height="1" transform="translate(17.708 18.5804)" fill="#B5457C"/>
<rect width="34" height="2" transform="translate(17.708 21.5804)" fill="#B5457C"/>
</svg>
