<svg width="62" height="36" viewBox="0 0 62 36" fill="none" xmlns="http://www.w3.org/2000/svg">
<rect x="8.88611" y="15.2462" width="50.921" height="9.63171" fill="#0B2C62" stroke="#0B2C62"/>
<path d="M12.2836 31.0592L9.52527 27.4388H29.1782L26.9371 31.0592H12.2836Z" fill="white" stroke="#0B2C62"/>
<path d="M41.9745 30.8773L39.2162 27.257H58.8692L56.628 30.8773H41.9745Z" fill="white" stroke="#0B2C62"/>
<circle cx="15.2551" cy="31.5435" r="3.5" fill="#0B2C62"/>
<circle cx="44.946" cy="31.3615" r="3.5" fill="#0B2C62"/>
<circle cx="23.4484" cy="31.5435" r="3.5" fill="#0B2C62"/>
<circle cx="53.1393" cy="31.3615" r="3.5" fill="#0B2C62"/>
<rect x="22.4261" y="31.0593" width="2.04443" height="0.968384" fill="white"/>
<rect x="52.1171" y="30.8773" width="2.04443" height="0.968384" fill="white"/>
<rect x="14.2329" y="31.0593" width="2.04443" height="0.968384" fill="white"/>
<rect x="43.9238" y="30.8773" width="2.04443" height="0.968384" fill="white"/>
<rect x="7.13416" y="25.2061" width="54.1947" height="3.18713" fill="white" stroke="#0B2C62"/>
<rect x="1.4281" y="9.25781" width="15" height="11" fill="#0B2C62"/>
<rect x="1.4281" y="9.25781" width="15" height="11" stroke="white"/>
</svg>
