<svg width="61" height="36" viewBox="0 0 61 36" fill="none" xmlns="http://www.w3.org/2000/svg">
<rect x="8.21289" y="4.86414" width="50.921" height="20.2404" fill="#FFBEFC" stroke="#B5457C"/>
<path d="M11.3069 31.0441L8.54858 27.4237H28.2016L25.9604 31.0441H11.3069Z" fill="#E8E6ED" stroke="#B1ADC2"/>
<path d="M40.9978 30.8622L38.2395 27.2418H57.8925L55.6514 30.8622H40.9978Z" fill="#E8E6ED" stroke="#B1ADC2"/>
<circle cx="14.2783" cy="31.5283" r="3" fill="#B1ADC2" stroke="#B1ADC2"/>
<circle cx="43.9692" cy="31.3463" r="3" fill="#B1ADC2" stroke="#B1ADC2"/>
<circle cx="22.4717" cy="31.5283" r="3" fill="#B1ADC2" stroke="#B1ADC2"/>
<circle cx="52.1626" cy="31.3463" r="3" fill="#B1ADC2" stroke="#B1ADC2"/>
<rect x="21.4495" y="31.0442" width="2.04443" height="0.968384" fill="white"/>
<rect x="51.1404" y="30.8622" width="2.04443" height="0.968384" fill="white"/>
<rect x="13.2563" y="31.0442" width="2.04443" height="0.968384" fill="white"/>
<rect x="42.9473" y="30.8622" width="2.04443" height="0.968384" fill="white"/>
<rect x="6.15747" y="25.1909" width="54.1947" height="3.18713" fill="#E8E6ED" stroke="#B1ADC2"/>
<rect x="0.949463" y="9.47278" width="15" height="11" fill="#FFBEFC"/>
<rect x="0.949463" y="9.47278" width="15" height="11" stroke="#B5457C"/>
</svg>
