<svg width="77" height="36" viewBox="0 0 77 36" fill="none" xmlns="http://www.w3.org/2000/svg">
<path d="M8.22437 5.68555C8.22437 3.20027 10.2391 1.18555 12.7244 1.18555H54.6454C57.1307 1.18555 59.1454 3.20027 59.1454 5.68555V25.2528H8.22437V5.68555Z" fill="white" stroke="#0B2C62"/>
<path d="M11.3184 31.1924L8.56006 27.572H28.213L25.9719 31.1924H11.3184Z" fill="#E8E6ED" stroke="#0B2C62"/>
<path d="M41.0093 31.0105L38.251 27.3901H57.9039L55.6628 31.0105H41.0093Z" fill="#E8E6ED" stroke="#0B2C62"/>
<circle cx="14.2899" cy="31.6766" r="3" fill="#0B2C62" stroke="#0B2C62"/>
<circle cx="43.9808" cy="31.4946" r="3" fill="#0B2C62" stroke="#0B2C62"/>
<circle cx="22.4832" cy="31.6766" r="3" fill="#0B2C62" stroke="#0B2C62"/>
<circle cx="52.1741" cy="31.4946" r="3" fill="#0B2C62" stroke="#0B2C62"/>
<rect x="21.4609" y="31.1925" width="2.04443" height="0.968384" fill="white"/>
<rect x="51.1519" y="31.0105" width="2.04443" height="0.968384" fill="white"/>
<rect x="13.2677" y="31.1925" width="2.04443" height="0.968384" fill="white"/>
<rect x="42.9586" y="31.0105" width="2.04443" height="0.968384" fill="white"/>
<rect x="6.16895" y="25.3392" width="54.1947" height="3.18713" fill="#E8E6ED" stroke="#0B2C62"/>
<path d="M74.3342 25.7528H60.7728L60.0515 21.2805L61.927 17.5294L69.7176 11.4701L75.6327 14.3555V17.5294L74.3342 21.2805V25.7528Z" fill="#B1ADC2" stroke="#0B2C62"/>
<path d="M52.8283 25.0315H60.1859V22.8674L59.0319 19.2606L61.0517 14.7883L65.5241 7.28625H58.022L52.8283 14.7883L51.6741 19.2606V23.733L52.8283 25.0315Z" fill="#B1ADC2" stroke="#0B2C62"/>
<path d="M61.6472 17.6238L75.822 17.6238" stroke="#0B2C62"/>
<path d="M52.5576 14.7095L60.8638 14.7095" stroke="#0B2C62"/>
<path d="M25.9834 19.113L33.9326 19.113" stroke="#0B2C62"/>
<path d="M25.9834 21.4525L33.9326 21.4525" stroke="#0B2C62"/>
<path d="M25.9834 23.6354L33.9326 23.6354" stroke="#0B2C62"/>
<path d="M51.3391 19.113L59.6453 19.113" stroke="#0B2C62"/>
<path d="M60.4929 22.6238H73.822" stroke="#0B2C62"/>
<rect x="13.5269" y="5.35339" width="6.00483" height="5.73446" rx="1.5" fill="#B1ADC2" stroke="#0B2C62"/>
<path d="M26.4834 7.02576C26.4834 6.19733 27.155 5.52576 27.9834 5.52576H31.9326C32.761 5.52576 33.4326 6.19733 33.4326 7.02576V17.1238H26.4834V7.02576Z" stroke="#0B2C62"/>
<rect x="48.1211" y="5.2356" width="6.05273" height="5.73446" rx="1.5" fill="#B1ADC2" stroke="#0B2C62"/>
<rect x="0.766113" y="9.63269" width="15" height="11" fill="#15386C"/>
<rect x="0.766113" y="9.63269" width="15" height="11" stroke="#0B2C62"/>
</svg>
