<svg width="62" height="36" viewBox="0 0 62 36" fill="none" xmlns="http://www.w3.org/2000/svg">
<path d="M54.7718 7.5968C54.7718 8.41256 54.2929 9.26339 53.2583 10.106C52.2277 10.9454 50.7061 11.7235 48.7815 12.3865C44.9371 13.7109 39.5939 14.5391 33.6685 14.5391C27.7431 14.5391 22.3998 13.7109 18.5554 12.3865C16.6309 11.7235 15.1092 10.9454 14.0786 10.106C13.0441 9.26339 12.5651 8.41256 12.5651 7.5968C12.5651 6.78105 13.0441 5.93021 14.0786 5.08762C15.1092 4.24822 16.6309 3.47008 18.5554 2.80706C22.3998 1.4827 27.7431 0.654541 33.6685 0.654541C39.5939 0.654541 44.9371 1.4827 48.7815 2.80706C50.7061 3.47008 52.2277 4.24822 53.2583 5.08762C54.2929 5.93021 54.7718 6.78105 54.7718 7.5968Z" fill="#B1ADC2" stroke="#0B2C62"/>
<rect x="8.19476" y="5.27368" width="50.921" height="20.2404" fill="#0B2C62" stroke="#0B2C62"/>
<path d="M11.5872 31.3009L8.82892 27.6805H28.4819L26.2408 31.3009H11.5872Z" fill="white" stroke="#0B2C62"/>
<path d="M41.2781 31.119L38.5198 27.4987H58.1728L55.9317 31.119H41.2781Z" fill="white" stroke="#0B2C62"/>
<circle cx="14.5588" cy="31.7852" r="3.5" fill="#0B2C62"/>
<circle cx="44.2497" cy="31.6031" r="3.5" fill="#0B2C62"/>
<circle cx="22.752" cy="31.7852" r="3.5" fill="#0B2C62"/>
<circle cx="52.4429" cy="31.6031" r="3.5" fill="#0B2C62"/>
<rect x="21.7298" y="31.301" width="2.04443" height="0.968384" fill="white"/>
<rect x="51.4207" y="31.119" width="2.04443" height="0.968384" fill="white"/>
<rect x="13.5366" y="31.301" width="2.04443" height="0.968384" fill="white"/>
<rect x="43.2275" y="31.119" width="2.04443" height="0.968384" fill="white"/>
<rect x="6.43781" y="25.4478" width="54.1947" height="3.18713" fill="white" stroke="#0B2C62"/>
<rect x="0.736633" y="9.89392" width="15" height="11" fill="#0B2C62"/>
<rect x="0.736633" y="9.89392" width="15" height="11" stroke="white"/>
<rect width="7" height="1" transform="matrix(0 -1 1 0 20.5352 24.4698)" fill="white"/>
<rect width="7" height="2" transform="matrix(0 -1 1 0 23.5352 24.4698)" fill="white"/>
<rect width="7" height="1" transform="matrix(0 -1 1 0 27.5352 24.4698)" fill="white"/>
<rect width="7" height="2" transform="matrix(0 -1 1 0 30.5352 24.4698)" fill="white"/>
<rect width="7" height="1" transform="matrix(0 -1 1 0 34.5352 24.4698)" fill="white"/>
<rect width="7" height="2" transform="matrix(0 -1 1 0 37.5352 24.4698)" fill="white"/>
<rect width="7" height="1" transform="matrix(0 -1 1 0 41.5352 24.4698)" fill="white"/>
<rect width="7" height="2" transform="matrix(0 -1 1 0 44.5352 24.4698)" fill="white"/>
<rect width="7" height="1" transform="matrix(0 -1 1 0 48.5352 24.4698)" fill="white"/>
<rect width="7" height="2" transform="matrix(0 -1 1 0 51.5352 24.4698)" fill="white"/>
<path d="M29.0334 15.5323C28.1134 15.5323 27.3368 15.349 26.7034 14.9823L27.1734 14.0323C27.7934 14.359 28.4334 14.5223 29.0934 14.5223C30.0334 14.5223 30.5034 14.1523 30.5034 13.4123C30.5034 12.619 29.9201 12.2223 28.7534 12.2223H27.7934V11.2023H28.7434C29.7501 11.2023 30.2534 10.8523 30.2534 10.1523C30.2534 9.54566 29.8601 9.24232 29.0734 9.24232C28.5134 9.24232 27.9034 9.39232 27.2434 9.69232L26.8734 8.72232C27.6868 8.39566 28.4601 8.23232 29.1934 8.23232C30.6468 8.23232 31.3734 8.81232 31.3734 9.97232C31.3734 10.7857 31.0001 11.3057 30.2534 11.5323C30.0401 11.5923 29.8134 11.629 29.5734 11.6423V11.6823C29.8401 11.6823 30.0701 11.7023 30.2634 11.7423C31.1634 11.9423 31.6134 12.529 31.6134 13.5023C31.6134 14.8557 30.7534 15.5323 29.0334 15.5323ZM34.5289 10.6123C35.2022 10.6123 35.6922 10.7657 35.9989 11.0723C36.3122 11.3723 36.4689 11.8457 36.4689 12.4923V15.3823H35.4789C35.4789 15.1023 35.5256 14.859 35.6189 14.6523L35.5789 14.6323C35.2322 15.2323 34.7156 15.5323 34.0289 15.5323C33.5356 15.5323 33.1322 15.3857 32.8189 15.0923C32.5122 14.7923 32.3589 14.399 32.3589 13.9123C32.3589 13.4123 32.5122 13.0157 32.8189 12.7223C33.1256 12.429 33.5322 12.2823 34.0389 12.2823C34.7322 12.2823 35.2422 12.539 35.5689 13.0523L35.5989 13.0323C35.5656 12.9123 35.5389 12.699 35.5189 12.3923C35.4789 11.8123 35.1222 11.5223 34.4489 11.5223C34.0822 11.5223 33.6389 11.6057 33.1189 11.7723L32.8489 10.8923C33.4156 10.7057 33.9756 10.6123 34.5289 10.6123ZM35.1389 13.3223C34.9456 13.169 34.6989 13.0923 34.3989 13.0923C34.0989 13.0923 33.8556 13.169 33.6689 13.3223C33.4889 13.4757 33.3989 13.6757 33.3989 13.9223C33.3989 14.169 33.4889 14.3657 33.6689 14.5123C33.8489 14.659 34.0889 14.7323 34.3889 14.7323C34.6956 14.7323 34.9456 14.659 35.1389 14.5123C35.3389 14.359 35.4389 14.159 35.4389 13.9123C35.4389 13.6723 35.3389 13.4757 35.1389 13.3223ZM40.3487 10.6123C41.002 10.6123 41.5387 10.8423 41.9587 11.3023C42.3787 11.7623 42.5887 12.3523 42.5887 13.0723C42.5887 13.7923 42.3787 14.3823 41.9587 14.8423C41.5387 15.3023 41.002 15.5323 40.3487 15.5323C39.5553 15.5323 38.9887 15.1823 38.6487 14.4823L38.6087 14.4923C38.6687 14.7123 38.6987 15.0357 38.6987 15.4623V17.3823H37.7187V10.7623H38.6687C38.6687 11.189 38.6487 11.4857 38.6087 11.6523L38.6487 11.6623C38.9953 10.9623 39.562 10.6123 40.3487 10.6123ZM40.1587 11.5323C39.7187 11.5323 39.3587 11.6757 39.0787 11.9623C38.7987 12.249 38.6587 12.619 38.6587 13.0723C38.6587 13.5257 38.7987 13.8957 39.0787 14.1823C39.3587 14.469 39.7187 14.6123 40.1587 14.6123C40.592 14.6123 40.932 14.4757 41.1787 14.2023C41.4253 13.929 41.5487 13.5523 41.5487 13.0723C41.5487 12.5923 41.4253 12.2157 41.1787 11.9423C40.932 11.669 40.592 11.5323 40.1587 11.5323Z" fill="white"/>
</svg>
