<svg width="61" height="36" viewBox="0 0 61 36" fill="none" xmlns="http://www.w3.org/2000/svg">
<rect x="7.92529" y="5.19214" width="50.921" height="20.2404" fill="#FFB762" stroke="#ED7817"/>
<path d="M11.019 31.3721L8.26074 27.7517H27.9137L25.6726 31.3721H11.019Z" fill="#E8E6ED" stroke="#B1ADC2"/>
<path d="M40.71 31.1902L37.9517 27.5698H57.6046L55.3635 31.1902H40.71Z" fill="#E8E6ED" stroke="#B1ADC2"/>
<circle cx="13.9907" cy="31.8563" r="3" fill="#B1ADC2" stroke="#B1ADC2"/>
<circle cx="43.6816" cy="31.6743" r="3" fill="#B1ADC2" stroke="#B1ADC2"/>
<circle cx="22.1838" cy="31.8563" r="3" fill="#B1ADC2" stroke="#B1ADC2"/>
<circle cx="51.8748" cy="31.6743" r="3" fill="#B1ADC2" stroke="#B1ADC2"/>
<rect x="21.1616" y="31.3722" width="2.04443" height="0.968384" fill="white"/>
<rect x="50.8525" y="31.1902" width="2.04443" height="0.968384" fill="white"/>
<rect x="12.9683" y="31.3722" width="2.04443" height="0.968384" fill="white"/>
<rect x="42.6592" y="31.1902" width="2.04443" height="0.968384" fill="white"/>
<rect x="5.86963" y="25.5189" width="54.1947" height="3.18713" fill="#E8E6ED" stroke="#B1ADC2"/>
<rect x="0.661621" y="9.80078" width="15" height="11" fill="#FFB762"/>
<rect x="0.661621" y="9.80078" width="15" height="11" stroke="#ED7817"/>
</svg>
