<svg width="62" height="37" viewBox="0 0 62 37" fill="none" xmlns="http://www.w3.org/2000/svg">
<path d="M55.2197 8.2915C55.2197 9.10726 54.7407 9.95809 53.7062 10.8007C52.6756 11.6401 51.1539 12.4182 49.2293 13.0812C45.385 14.4056 40.0417 15.2338 34.1163 15.2338C28.1909 15.2338 22.8477 14.4056 19.0033 13.0812C17.0787 12.4182 15.5571 11.6401 14.5265 10.8007C13.4919 9.95809 13.013 9.10726 13.013 8.2915C13.013 7.47575 13.4919 6.62492 14.5265 5.78232C15.5571 4.94292 17.0787 4.16478 19.0033 3.50177C22.8477 2.1774 28.1909 1.34924 34.1163 1.34924C40.0417 1.34924 45.385 2.1774 49.2293 3.50177C51.1539 4.16478 52.6756 4.94292 53.7062 5.78232C54.7407 6.62492 55.2197 7.47575 55.2197 8.2915Z" fill="#B1ADC2" stroke="#0B2C62"/>
<rect x="8.64264" y="5.96838" width="50.921" height="20.2404" fill="#0B2C62" stroke="#0B2C62"/>
<path d="M11.7365 32.1483L8.97821 28.528H28.6312L26.3901 32.1483H11.7365Z" fill="white" stroke="#0B2C62"/>
<path d="M41.4274 31.9664L38.6691 28.3461H58.3221L56.081 31.9664H41.4274Z" fill="white" stroke="#0B2C62"/>
<circle cx="14.7081" cy="32.6326" r="3.5" fill="#0B2C62"/>
<circle cx="44.399" cy="32.4506" r="3.5" fill="#0B2C62"/>
<circle cx="22.9013" cy="32.6326" r="3.5" fill="#0B2C62"/>
<circle cx="52.5922" cy="32.4506" r="3.5" fill="#0B2C62"/>
<rect x="21.8791" y="32.1484" width="2.04443" height="0.968384" fill="white"/>
<rect x="51.57" y="31.9664" width="2.04443" height="0.968384" fill="white"/>
<rect x="13.6859" y="32.1484" width="2.04443" height="0.968384" fill="white"/>
<rect x="43.3768" y="31.9664" width="2.04443" height="0.968384" fill="white"/>
<rect x="6.5871" y="26.2952" width="54.1947" height="3.18713" fill="white" stroke="#0B2C62"/>
<rect x="1.18451" y="10.5886" width="15" height="11" fill="#0B2C62"/>
<rect x="1.18451" y="10.5886" width="15" height="11" stroke="white"/>
<path d="M27.5813 17.167C27.308 17.167 27.0246 17.1504 26.7313 17.117L26.7413 16.107C27.0013 16.1537 27.268 16.177 27.5413 16.177C27.9546 16.177 28.2913 15.8937 28.5513 15.327L25.9513 10.077H27.1913L28.6713 13.297C28.9246 13.8437 29.068 14.2237 29.1013 14.437H29.1413C29.1813 14.0704 29.288 13.6804 29.4613 13.267L30.8813 10.077H32.0613L29.6013 15.507C29.3613 16.0804 29.078 16.5004 28.7513 16.767C28.4313 17.0337 28.0413 17.167 27.5813 17.167ZM34.2003 17.227C33.447 17.227 32.8336 17.0004 32.3603 16.547C31.8936 16.087 31.6603 15.4937 31.6603 14.767C31.6603 14.0404 31.8936 13.4504 32.3603 12.997C32.8336 12.537 33.447 12.307 34.2003 12.307C34.7803 12.307 35.307 12.4637 35.7803 12.777L35.3203 13.607C34.967 13.3737 34.5836 13.257 34.1703 13.257C33.737 13.257 33.3836 13.397 33.1103 13.677C32.837 13.957 32.7003 14.3204 32.7003 14.767C32.7003 15.2137 32.837 15.577 33.1103 15.857C33.3836 16.137 33.737 16.277 34.1703 16.277C34.5836 16.277 34.967 16.1604 35.3203 15.927L35.7803 16.757C35.307 17.0704 34.7803 17.227 34.2003 17.227ZM40.1883 17.107C39.6749 17.107 39.3583 16.907 39.2383 16.507L39.0083 15.687C38.9483 15.4537 38.8716 15.2904 38.7783 15.197C38.6849 15.1037 38.5449 15.057 38.3583 15.057H37.9283C37.8016 15.057 37.6983 15.0504 37.6183 15.037L37.6083 15.047C37.6416 15.1537 37.6583 15.2937 37.6583 15.467V17.077H36.6783V12.457H37.6583V13.887C37.6583 14.047 37.6416 14.1804 37.6083 14.287L37.6183 14.297C37.6983 14.2837 37.8016 14.277 37.9283 14.277H38.3583C38.5516 14.277 38.6883 14.2437 38.7683 14.177C38.8483 14.1037 38.9316 13.9504 39.0183 13.717L39.3583 12.897C39.4849 12.5837 39.7849 12.427 40.2583 12.427H40.7483V13.307H40.5383C40.3916 13.307 40.2816 13.3304 40.2083 13.377C40.1416 13.4237 40.0783 13.517 40.0183 13.657L39.8583 14.077C39.7316 14.4504 39.4049 14.6404 38.8783 14.647V14.687C39.1716 14.6937 39.3916 14.7437 39.5383 14.837C39.6916 14.9237 39.7983 15.0737 39.8583 15.287L40.0483 15.937C40.0883 16.0637 40.1349 16.1437 40.1883 16.177C40.2483 16.2104 40.3583 16.227 40.5183 16.227H40.7683V17.107H40.1883ZM43.4897 10.177C44.1963 10.177 44.7663 10.407 45.1997 10.867C45.633 11.327 45.8497 11.9337 45.8497 12.687C45.8497 13.1804 45.7597 13.637 45.5797 14.057C45.4063 14.477 45.1163 14.9237 44.7097 15.397L43.3397 17.077H42.1697L44.0397 14.807C44.373 14.4004 44.593 14.0904 44.6997 13.877L44.6597 13.857C44.2997 14.417 43.8097 14.697 43.1897 14.697C42.603 14.697 42.1097 14.4837 41.7097 14.057C41.3163 13.6304 41.1197 13.1004 41.1197 12.467C41.1197 11.7937 41.3397 11.2437 41.7797 10.817C42.2197 10.3904 42.7897 10.177 43.4897 10.177ZM43.4697 11.077C43.063 11.077 42.7397 11.2004 42.4997 11.447C42.2597 11.6937 42.1397 12.027 42.1397 12.447C42.1397 12.8604 42.2563 13.1837 42.4897 13.417C42.7297 13.6504 43.0563 13.767 43.4697 13.767C43.8963 13.767 44.2297 13.6504 44.4697 13.417C44.7097 13.1837 44.8297 12.8604 44.8297 12.447C44.8297 12.0204 44.7097 11.687 44.4697 11.447C44.2297 11.2004 43.8963 11.077 43.4697 11.077Z" fill="white"/>
<rect width="34" height="1" transform="translate(20.9897 18.6326)" fill="white"/>
<rect width="34" height="2" transform="translate(20.9897 21.6326)" fill="white"/>
</svg>
