<svg width="61" height="37" viewBox="0 0 61 37" fill="none" xmlns="http://www.w3.org/2000/svg">
<path d="M54.9376 8.23938C54.9376 9.05514 54.4587 9.90597 53.4242 10.7486C52.3936 11.588 50.8719 12.3661 48.9473 13.0291C45.1029 14.3535 39.7597 15.1816 33.8343 15.1816C27.9089 15.1816 22.5656 14.3535 18.7213 13.0291C16.7967 12.3661 15.275 11.588 14.2444 10.7486C13.2099 9.90597 12.731 9.05514 12.731 8.23938C12.731 7.42362 13.2099 6.57279 14.2444 5.7302C15.275 4.89079 16.7967 4.11265 18.7213 3.44964C22.5656 2.12528 27.9089 1.29712 33.8343 1.29712C39.7597 1.29712 45.1029 2.12528 48.9473 3.44964C50.8719 4.11265 52.3936 4.89079 53.4242 5.7302C54.4587 6.57279 54.9376 7.42362 54.9376 8.23938Z" fill="#BCF3FF" stroke="#2988AE"/>
<path d="M11.4546 32.0962L8.69629 28.4758H28.3493L26.1081 32.0962H11.4546Z" fill="#E8E6ED" stroke="#B1ADC2"/>
<path d="M41.1455 31.9143L38.3872 28.2939H58.0402L55.7991 31.9143H41.1455Z" fill="#E8E6ED" stroke="#B1ADC2"/>
<circle cx="14.4263" cy="32.5804" r="3" fill="#B1ADC2" stroke="#B1ADC2"/>
<circle cx="44.1172" cy="32.3984" r="3" fill="#B1ADC2" stroke="#B1ADC2"/>
<circle cx="22.6194" cy="32.5804" r="3" fill="#B1ADC2" stroke="#B1ADC2"/>
<circle cx="52.3103" cy="32.3984" r="3" fill="#B1ADC2" stroke="#B1ADC2"/>
<rect x="21.5972" y="32.0963" width="2.04443" height="0.968384" fill="white"/>
<rect x="51.2881" y="31.9143" width="2.04443" height="0.968384" fill="white"/>
<rect x="13.4038" y="32.0963" width="2.04443" height="0.968384" fill="white"/>
<rect x="43.0947" y="31.9143" width="2.04443" height="0.968384" fill="white"/>
<rect x="6.30518" y="26.243" width="54.1947" height="3.18713" fill="#E8E6ED" stroke="#B1ADC2"/>
<rect x="14.8896" y="11.7738" width="14.6898" height="1.11673" transform="rotate(100.267 14.8896 11.7738)" fill="#2988AE"/>
<path d="M11.791 9.21649V5.72498H56.8314V9.21649H55.6675V12.1261H53.4562V23.9972C50.3915 24.5791 42.3532 25.743 34.7185 25.743C27.0837 25.743 18.3472 24.5791 14.9333 23.9972V12.1261H12.722V9.21649H11.791Z" fill="#BCF3FF" stroke="#2988AE"/>
<rect width="14.2979" height="1.11673" transform="matrix(-0.178232 -0.983988 -0.983988 0.178232 57.2188 26.1219)" fill="#2988AE"/>
<rect x="0.902344" y="9.5365" width="15" height="11" fill="#BCF3FF"/>
<rect x="0.902344" y="9.5365" width="15" height="11" stroke="#2988AE"/>
<path d="M28.1991 17.1749C27.2791 17.1749 26.5025 16.9916 25.8691 16.6249L26.3391 15.6749C26.9591 16.0016 27.5991 16.1649 28.2591 16.1649C29.1991 16.1649 29.6691 15.7949 29.6691 15.0549C29.6691 14.2616 29.0858 13.8649 27.9191 13.8649H26.9591V12.8449H27.9091C28.9158 12.8449 29.4191 12.4949 29.4191 11.7949C29.4191 11.1882 29.0258 10.8849 28.2391 10.8849C27.6791 10.8849 27.0691 11.0349 26.4091 11.3349L26.0391 10.3649C26.8525 10.0382 27.6258 9.8749 28.3591 9.8749C29.8125 9.8749 30.5391 10.4549 30.5391 11.6149C30.5391 12.4282 30.1658 12.9482 29.4191 13.1749C29.2058 13.2349 28.9791 13.2716 28.7391 13.2849V13.3249C29.0058 13.3249 29.2358 13.3449 29.4291 13.3849C30.3291 13.5849 30.7791 14.1716 30.7791 15.1449C30.7791 16.4982 29.9191 17.1749 28.1991 17.1749ZM33.6946 12.2549C34.3679 12.2549 34.8579 12.4082 35.1646 12.7149C35.4779 13.0149 35.6346 13.4882 35.6346 14.1349V17.0249H34.6446C34.6446 16.7449 34.6913 16.5016 34.7846 16.2949L34.7446 16.2749C34.3979 16.8749 33.8813 17.1749 33.1946 17.1749C32.7013 17.1749 32.2979 17.0282 31.9846 16.7349C31.6779 16.4349 31.5246 16.0416 31.5246 15.5549C31.5246 15.0549 31.6779 14.6582 31.9846 14.3649C32.2913 14.0716 32.6979 13.9249 33.2046 13.9249C33.8979 13.9249 34.4079 14.1816 34.7346 14.6949L34.7646 14.6749C34.7313 14.5549 34.7046 14.3416 34.6846 14.0349C34.6446 13.4549 34.2879 13.1649 33.6146 13.1649C33.2479 13.1649 32.8046 13.2482 32.2846 13.4149L32.0146 12.5349C32.5813 12.3482 33.1413 12.2549 33.6946 12.2549ZM34.3046 14.9649C34.1113 14.8116 33.8646 14.7349 33.5646 14.7349C33.2646 14.7349 33.0213 14.8116 32.8346 14.9649C32.6546 15.1182 32.5646 15.3182 32.5646 15.5649C32.5646 15.8116 32.6546 16.0082 32.8346 16.1549C33.0146 16.3016 33.2546 16.3749 33.5546 16.3749C33.8613 16.3749 34.1113 16.3016 34.3046 16.1549C34.5046 16.0016 34.6046 15.8016 34.6046 15.5549C34.6046 15.3149 34.5046 15.1182 34.3046 14.9649ZM39.5144 12.2549C40.1677 12.2549 40.7044 12.4849 41.1244 12.9449C41.5444 13.4049 41.7544 13.9949 41.7544 14.7149C41.7544 15.4349 41.5444 16.0249 41.1244 16.4849C40.7044 16.9449 40.1677 17.1749 39.5144 17.1749C38.721 17.1749 38.1544 16.8249 37.8144 16.1249L37.7744 16.1349C37.8344 16.3549 37.8644 16.6782 37.8644 17.1049V19.0249H36.8844V12.4049H37.8344C37.8344 12.8316 37.8144 13.1282 37.7744 13.2949L37.8144 13.3049C38.161 12.6049 38.7277 12.2549 39.5144 12.2549ZM39.3244 13.1749C38.8844 13.1749 38.5244 13.3182 38.2444 13.6049C37.9644 13.8916 37.8244 14.2616 37.8244 14.7149C37.8244 15.1682 37.9644 15.5382 38.2444 15.8249C38.5244 16.1116 38.8844 16.2549 39.3244 16.2549C39.7577 16.2549 40.0977 16.1182 40.3444 15.8449C40.591 15.5716 40.7144 15.1949 40.7144 14.7149C40.7144 14.2349 40.591 13.8582 40.3444 13.5849C40.0977 13.3116 39.7577 13.1749 39.3244 13.1749Z" fill="#2F2E34"/>
<rect width="5" height="1" transform="matrix(0 -1 1 0 17.9932 25.0804)" fill="#2988AE"/>
<rect width="5" height="2" transform="matrix(0 -1 1 0 20.9932 25.0804)" fill="#2988AE"/>
<rect width="5" height="1" transform="matrix(0 -1 1 0 24.9932 25.0804)" fill="#2988AE"/>
<rect width="5" height="2" transform="matrix(0 -1 1 0 27.9932 25.0804)" fill="#2988AE"/>
<rect width="5" height="1" transform="matrix(0 -1 1 0 31.9932 25.0804)" fill="#2988AE"/>
<rect width="5" height="2" transform="matrix(0 -1 1 0 34.9932 25.0804)" fill="#2988AE"/>
<rect width="5" height="1" transform="matrix(0 -1 1 0 38.9932 25.0804)" fill="#2988AE"/>
<rect width="5" height="2" transform="matrix(0 -1 1 0 41.9932 25.0804)" fill="#2988AE"/>
<rect width="5" height="1" transform="matrix(0 -1 1 0 45.9932 25.0804)" fill="#2988AE"/>
<rect width="5" height="2" transform="matrix(0 -1 1 0 48.9932 25.0804)" fill="#2988AE"/>
</svg>
