<svg width="61" height="36" viewBox="0 0 61 36" fill="none" xmlns="http://www.w3.org/2000/svg">
<path d="M8.36047 8.56995C8.36047 6.08466 10.3752 4.06995 12.8605 4.06995H54.7815C57.2668 4.06995 59.2815 6.08467 59.2815 8.56995V25.1566H8.36047V8.56995Z" fill="#ABABAB" stroke="#6E6E6D"/>
<path d="M11.4547 31.0962L8.69641 27.4758H28.3494L26.1083 31.0962H11.4547Z" fill="#E8E6ED" stroke="#B1ADC2"/>
<path d="M41.1456 30.9143L38.3873 27.2939H58.0403L55.7992 30.9143H41.1456Z" fill="#E8E6ED" stroke="#B1ADC2"/>
<circle cx="14.4263" cy="31.5804" r="3" fill="#B1ADC2" stroke="#B1ADC2"/>
<circle cx="44.1172" cy="31.3984" r="3" fill="#B1ADC2" stroke="#B1ADC2"/>
<circle cx="22.6195" cy="31.5804" r="3" fill="#B1ADC2" stroke="#B1ADC2"/>
<circle cx="52.3104" cy="31.3984" r="3" fill="#B1ADC2" stroke="#B1ADC2"/>
<rect x="21.5973" y="31.0963" width="2.04443" height="0.968384" fill="white"/>
<rect x="51.2882" y="30.9143" width="2.04443" height="0.968384" fill="white"/>
<rect x="13.4041" y="31.0963" width="2.04443" height="0.968384" fill="white"/>
<rect x="43.095" y="30.9143" width="2.04443" height="0.968384" fill="white"/>
<rect x="6.3053" y="25.243" width="54.1947" height="3.18713" fill="#E8E6ED" stroke="#B1ADC2"/>
<rect x="0.902466" y="8.5365" width="15" height="11" fill="#ABABAB"/>
<rect x="0.902466" y="8.5365" width="15" height="11" stroke="#6E6E6D"/>
</svg>
