<svg width="64" height="36" viewBox="0 0 64 36" fill="none" xmlns="http://www.w3.org/2000/svg">
<path d="M62.5308 16.4341L57.1431 7.05156C56.7865 6.43046 56.1249 6.04749 55.4087 6.04749H38.2804C37.1758 6.04749 36.2804 6.94292 36.2804 8.04749V23.7528C36.2804 24.8573 37.1758 25.7528 38.2804 25.7528H60.7964C61.901 25.7528 62.7964 24.8573 62.7964 23.7528V17.4301C62.7964 17.0806 62.7048 16.7372 62.5308 16.4341Z" fill="#0B2C62" stroke="#0B2C62"/>
<rect x="6.61133" y="21.6211" width="29.5264" height="3.63171" fill="#B1ADC2" stroke="#0B2C62"/>
<path d="M9.70508 31.1924L6.94678 27.572H26.5997L24.3586 31.1924H9.70508Z" fill="#E8E6ED" stroke="#0B2C62"/>
<path d="M39.396 31.0105L36.6377 27.3901H56.2907L54.0495 31.0105H39.396Z" fill="#E8E6ED" stroke="#0B2C62"/>
<circle cx="12.6766" cy="31.6766" r="3" fill="#0B2C62" stroke="#0B2C62"/>
<circle cx="42.3676" cy="31.4946" r="3" fill="#0B2C62" stroke="#0B2C62"/>
<circle cx="20.8699" cy="31.6766" r="3" fill="#0B2C62" stroke="#0B2C62"/>
<circle cx="50.5608" cy="31.4946" r="3" fill="#0B2C62" stroke="#0B2C62"/>
<rect x="19.8477" y="31.1925" width="2.04443" height="0.968384" fill="white"/>
<rect x="49.5386" y="31.0105" width="2.04443" height="0.968384" fill="white"/>
<rect x="11.6544" y="31.1925" width="2.04443" height="0.968384" fill="white"/>
<rect x="41.3453" y="31.0105" width="2.04443" height="0.968384" fill="white"/>
<rect x="4.55566" y="25.3392" width="54.1947" height="3.18713" fill="#E8E6ED" stroke="#0B2C62"/>
<path d="M58.253 18.1L54.3587 9.12109H49.5386V18.1H58.253Z" fill="white"/>
<path d="M46.0521 18.1211V8.97864H40.4585V18.1211H46.0521Z" fill="white"/>
<path d="M21.5249 19.1211C21.5249 17.7404 22.6442 16.6211 24.0249 16.6211H33.9212C35.302 16.6211 36.4212 17.7404 36.4212 19.1211V25.2528H21.5249V19.1211Z" stroke="#0B2C62"/>
<path d="M6.61133 18.8608C6.61133 17.4801 7.73062 16.3608 9.11133 16.3608H19.0077C20.3884 16.3608 21.5077 17.4801 21.5077 18.8608V24.9926H6.61133V18.8608Z" stroke="#0B2C62"/>
<rect x="1.34766" y="9.62109" width="15" height="11" fill="#15386C"/>
<rect x="1.34766" y="9.62109" width="15" height="11" stroke="#0B2C62"/>
<path d="M36.8481 21.5912H62.7964" stroke="white"/>
</svg>
