<svg width="61" height="36" viewBox="0 0 61 36" fill="none" xmlns="http://www.w3.org/2000/svg">
<path d="M8.18274 8.62207C8.18274 6.13679 10.1975 4.12207 12.6827 4.12207H54.6038C57.089 4.12207 59.1038 6.13679 59.1038 8.62207V25.2087H8.18274V8.62207Z" fill="#0B2C62" stroke="#0B2C62"/>
<path d="M11.2767 31.1483L8.51843 27.528H28.1714L25.9303 31.1483H11.2767Z" fill="#E8E6ED" stroke="#0B2C62"/>
<path d="M40.9677 30.9664L38.2094 27.3461H57.8623L55.6212 30.9664H40.9677Z" fill="#E8E6ED" stroke="#0B2C62"/>
<circle cx="14.2483" cy="31.6326" r="3" fill="#0B2C62" stroke="#0B2C62"/>
<circle cx="43.9392" cy="31.4506" r="3" fill="#0B2C62" stroke="#0B2C62"/>
<circle cx="22.4415" cy="31.6326" r="3" fill="#0B2C62" stroke="#0B2C62"/>
<circle cx="52.1324" cy="31.4506" r="3" fill="#0B2C62" stroke="#0B2C62"/>
<rect x="21.4193" y="31.1484" width="2.04443" height="0.968384" fill="white"/>
<rect x="51.1102" y="30.9664" width="2.04443" height="0.968384" fill="white"/>
<rect x="13.2261" y="31.1484" width="2.04443" height="0.968384" fill="white"/>
<rect x="42.917" y="30.9664" width="2.04443" height="0.968384" fill="white"/>
<rect x="6.12732" y="25.2952" width="54.1947" height="3.18713" fill="#E8E6ED" stroke="#0B2C62"/>
<rect x="0.724731" y="9.58862" width="15" height="11" fill="#15386C"/>
<rect x="0.724731" y="9.58862" width="15" height="11" stroke="#0B2C62"/>
<rect width="34" height="1" transform="translate(20.5299 12.6326)" fill="white"/>
<rect width="34" height="2" transform="translate(20.5299 15.6326)" fill="white"/>
</svg>
