<svg width="61" height="36" viewBox="0 0 61 36" fill="none" xmlns="http://www.w3.org/2000/svg">
<rect x="7.97595" y="5.53479" width="50.921" height="20.2404" fill="#FFF3B4" stroke="#F69112"/>
<path d="M11.0698 31.7147L8.31152 28.0944H27.9645L25.7234 31.7147H11.0698Z" fill="#E8E6ED" stroke="#B1ADC2"/>
<path d="M40.7607 31.5328L38.0024 27.9125H57.6554L55.4143 31.5328H40.7607Z" fill="#E8E6ED" stroke="#B1ADC2"/>
<circle cx="14.0414" cy="32.199" r="3" fill="#B1ADC2" stroke="#B1ADC2"/>
<circle cx="43.7323" cy="32.017" r="3" fill="#B1ADC2" stroke="#B1ADC2"/>
<circle cx="22.2346" cy="32.199" r="3" fill="#B1ADC2" stroke="#B1ADC2"/>
<circle cx="51.9255" cy="32.017" r="3" fill="#B1ADC2" stroke="#B1ADC2"/>
<rect x="21.2124" y="31.7148" width="2.04443" height="0.968384" fill="white"/>
<rect x="50.9033" y="31.5328" width="2.04443" height="0.968384" fill="white"/>
<rect x="13.0192" y="31.7148" width="2.04443" height="0.968384" fill="white"/>
<rect x="42.7101" y="31.5328" width="2.04443" height="0.968384" fill="white"/>
<rect x="5.92041" y="25.8616" width="54.1947" height="3.18713" fill="#E8E6ED" stroke="#B1ADC2"/>
<rect x="0.712402" y="10.1434" width="15" height="11" fill="#FFF3B4"/>
<rect x="0.712402" y="10.1434" width="15" height="11" stroke="#F69112"/>
</svg>
