<svg width="61" height="36" viewBox="0 0 61 36" fill="none" xmlns="http://www.w3.org/2000/svg">
<path d="M54.7671 15.9824C54.7671 16.1602 54.6897 16.3757 54.4572 16.633C54.2221 16.8931 53.8519 17.1681 53.3334 17.4456C52.2973 18.0003 50.765 18.5153 48.8292 18.9536C44.9656 19.8285 39.6036 20.374 33.6638 20.374C27.7239 20.374 22.3619 19.8285 18.4983 18.9536C16.5625 18.5153 15.0302 18.0003 13.9941 17.4456C13.4757 17.1681 13.1054 16.8931 12.8703 16.633C12.6378 16.3757 12.5604 16.1602 12.5604 15.9824C12.5604 15.8045 12.6378 15.589 12.8703 15.3318C13.1054 15.0716 13.4757 14.7967 13.9941 14.5191C15.0302 13.9644 16.5625 13.4494 18.4983 13.0111C22.3619 12.1363 27.7239 11.5907 33.6638 11.5907C39.6036 11.5907 44.9656 12.1363 48.8292 13.0111C50.765 13.4494 52.2973 13.9644 53.3334 14.5191C53.8519 14.7967 54.2221 15.0716 54.4572 15.3318C54.6897 15.589 54.7671 15.8045 54.7671 15.9824Z" fill="#B1ADC2" stroke="#0B2C62"/>
<rect x="8.18982" y="15.8185" width="50.921" height="9.63171" fill="#0B2C62" stroke="#0B2C62"/>
<path d="M11.2836 31.7245L8.52527 28.1041H28.1782L25.9371 31.7245H11.2836Z" fill="white" stroke="#0B2C62"/>
<path d="M40.9745 31.5426L38.2162 27.9222H57.8692L55.628 31.5426H40.9745Z" fill="white" stroke="#0B2C62"/>
<circle cx="14.2551" cy="32.2087" r="3.5" fill="#0B2C62"/>
<circle cx="43.946" cy="32.0267" r="3.5" fill="#0B2C62"/>
<circle cx="22.4484" cy="32.2087" r="3.5" fill="#0B2C62"/>
<circle cx="52.1393" cy="32.0267" r="3.5" fill="#0B2C62"/>
<rect x="21.4261" y="31.7246" width="2.04443" height="0.968384" fill="white"/>
<rect x="51.1171" y="31.5426" width="2.04443" height="0.968384" fill="white"/>
<rect x="13.2329" y="31.7246" width="2.04443" height="0.968384" fill="white"/>
<rect x="42.9238" y="31.5426" width="2.04443" height="0.968384" fill="white"/>
<rect x="6.13416" y="25.8713" width="54.1947" height="3.18713" fill="white" stroke="#0B2C62"/>
<rect x="0.731812" y="9.83008" width="15" height="11" fill="#0B2C62"/>
<rect x="0.731812" y="9.83008" width="15" height="11" stroke="white"/>
<rect width="7" height="1" transform="matrix(0 -1 1 0 19.829 24.6141)" fill="white"/>
<rect width="7" height="2" transform="matrix(0 -1 1 0 22.829 24.6141)" fill="white"/>
<rect width="7" height="1" transform="matrix(0 -1 1 0 26.829 24.6141)" fill="white"/>
<rect width="7" height="2" transform="matrix(0 -1 1 0 29.829 24.6141)" fill="white"/>
<rect width="7" height="1" transform="matrix(0 -1 1 0 33.829 24.6141)" fill="white"/>
<rect width="7" height="2" transform="matrix(0 -1 1 0 36.829 24.6141)" fill="white"/>
<rect width="7" height="1" transform="matrix(0 -1 1 0 40.829 24.6141)" fill="white"/>
<rect width="7" height="2" transform="matrix(0 -1 1 0 43.829 24.6141)" fill="white"/>
<rect width="7" height="1" transform="matrix(0 -1 1 0 47.829 24.6141)" fill="white"/>
<rect width="7" height="2" transform="matrix(0 -1 1 0 50.829 24.6141)" fill="white"/>
</svg>
