<svg width="61" height="36" viewBox="0 0 61 36" fill="none" xmlns="http://www.w3.org/2000/svg">
<path d="M54.7671 15.7938C54.7671 15.9716 54.6897 16.1871 54.4572 16.4444C54.2221 16.7045 53.8519 16.9795 53.3334 17.257C52.2973 17.8117 50.765 18.3267 48.8292 18.765C44.9656 19.6399 39.6036 20.1854 33.6638 20.1854C27.7239 20.1854 22.3619 19.6399 18.4983 18.765C16.5625 18.3267 15.0302 17.8117 13.9941 17.257C13.4757 16.9795 13.1054 16.7045 12.8703 16.4444C12.6378 16.1871 12.5604 15.9716 12.5604 15.7938C12.5604 15.6159 12.6378 15.4004 12.8703 15.1432C13.1054 14.883 13.4757 14.6081 13.9941 14.3305C15.0302 13.7758 16.5625 13.2608 18.4983 12.8225C22.3619 11.9477 27.7239 11.4021 33.6638 11.4021C39.6036 11.4021 44.9656 11.9477 48.8292 12.8225C50.765 13.2608 52.2973 13.7758 53.3334 14.3305C53.8519 14.6081 54.2221 14.883 54.4572 15.1432C54.6897 15.4004 54.7671 15.6159 54.7671 15.7938Z" fill="#B1ADC2" stroke="#0B2C62"/>
<rect x="8.18982" y="15.6299" width="50.921" height="9.63171" fill="#0B2C62" stroke="#0B2C62"/>
<path d="M11.2836 31.1302L8.52527 27.5098H28.1782L25.9371 31.1302H11.2836Z" fill="white" stroke="#0B2C62"/>
<path d="M40.9745 30.9483L38.2162 27.3279H57.8692L55.628 30.9483H40.9745Z" fill="white" stroke="#0B2C62"/>
<circle cx="14.2551" cy="31.6144" r="3.5" fill="#0B2C62"/>
<circle cx="43.946" cy="31.4324" r="3.5" fill="#0B2C62"/>
<circle cx="22.4484" cy="31.6144" r="3.5" fill="#0B2C62"/>
<circle cx="52.1393" cy="31.4324" r="3.5" fill="#0B2C62"/>
<rect x="21.4261" y="31.1303" width="2.04443" height="0.968384" fill="white"/>
<rect x="51.1171" y="30.9483" width="2.04443" height="0.968384" fill="white"/>
<rect x="13.2329" y="31.1303" width="2.04443" height="0.968384" fill="white"/>
<rect x="42.9238" y="30.9483" width="2.04443" height="0.968384" fill="white"/>
<rect x="6.13416" y="25.277" width="54.1947" height="3.18713" fill="white" stroke="#0B2C62"/>
<rect x="0.731812" y="9.64148" width="15" height="11" fill="#0B2C62"/>
<rect x="0.731812" y="9.64148" width="15" height="11" stroke="white"/>
<rect width="34" height="1" transform="translate(20.537 17.6854)" fill="white"/>
<rect width="34" height="2" transform="translate(20.537 20.6854)" fill="white"/>
</svg>
