<svg width="61" height="36" viewBox="0 0 61 36" fill="none" xmlns="http://www.w3.org/2000/svg">
<path d="M54.7671 15.7938C54.7671 15.9716 54.6897 16.1871 54.4572 16.4444C54.2221 16.7045 53.8519 16.9795 53.3334 17.257C52.2973 17.8117 50.765 18.3267 48.8292 18.765C44.9656 19.6399 39.6036 20.1854 33.6638 20.1854C27.7239 20.1854 22.3619 19.6399 18.4983 18.765C16.5625 18.3267 15.0302 17.8117 13.9941 17.257C13.4757 16.9795 13.1054 16.7045 12.8703 16.4444C12.6378 16.1871 12.5604 15.9716 12.5604 15.7938C12.5604 15.6159 12.6378 15.4004 12.8703 15.1432C13.1054 14.883 13.4757 14.6081 13.9941 14.3305C15.0302 13.7758 16.5625 13.2608 18.4983 12.8225C22.3619 11.9477 27.7239 11.4021 33.6638 11.4021C39.6036 11.4021 44.9656 11.9477 48.8292 12.8225C50.765 13.2608 52.2973 13.7758 53.3334 14.3305C53.8519 14.6081 54.2221 14.883 54.4572 15.1432C54.6897 15.4004 54.7671 15.6159 54.7671 15.7938Z" fill="#B1ADC2" stroke="#0B2C62"/>
<rect x="8.18982" y="15.6299" width="50.921" height="9.63171" fill="#0B2C62" stroke="#0B2C62"/>
<path d="M11.2836 31.1302L8.52527 27.5098H28.1782L25.9371 31.1302H11.2836Z" fill="white" stroke="#0B2C62"/>
<path d="M40.9745 30.9483L38.2162 27.3279H57.8692L55.628 30.9483H40.9745Z" fill="white" stroke="#0B2C62"/>
<circle cx="14.2551" cy="31.6144" r="3.5" fill="#0B2C62"/>
<circle cx="43.946" cy="31.4324" r="3.5" fill="#0B2C62"/>
<circle cx="22.4484" cy="31.6144" r="3.5" fill="#0B2C62"/>
<circle cx="52.1393" cy="31.4324" r="3.5" fill="#0B2C62"/>
<rect x="21.4261" y="31.1303" width="2.04443" height="0.968384" fill="white"/>
<rect x="51.1171" y="30.9483" width="2.04443" height="0.968384" fill="white"/>
<rect x="13.2329" y="31.1303" width="2.04443" height="0.968384" fill="white"/>
<rect x="42.9238" y="30.9483" width="2.04443" height="0.968384" fill="white"/>
<rect x="6.13416" y="25.277" width="54.1947" height="3.18713" fill="white" stroke="#0B2C62"/>
<rect x="0.731812" y="9.64148" width="15" height="11" fill="#0B2C62"/>
<rect x="0.731812" y="9.64148" width="15" height="11" stroke="white"/>
<path d="M25.1286 9.21988C24.8553 9.21988 24.5719 9.20322 24.2786 9.16988L24.2886 8.15988C24.5486 8.20655 24.8153 8.22988 25.0886 8.22988C25.5019 8.22988 25.8386 7.94655 26.0986 7.37988L23.4986 2.12988H24.7386L26.2186 5.34988C26.4719 5.89655 26.6153 6.27655 26.6486 6.48988H26.6886C26.7286 6.12322 26.8353 5.73322 27.0086 5.31988L28.4286 2.12988H29.6086L27.1486 7.55988C26.9086 8.13322 26.6253 8.55322 26.2986 8.81988C25.9786 9.08655 25.5886 9.21988 25.1286 9.21988ZM31.7476 9.27988C30.9943 9.27988 30.3809 9.05322 29.9076 8.59988C29.4409 8.13988 29.2076 7.54655 29.2076 6.81988C29.2076 6.09322 29.4409 5.50322 29.9076 5.04988C30.3809 4.58988 30.9943 4.35988 31.7476 4.35988C32.3276 4.35988 32.8543 4.51655 33.3276 4.82988L32.8676 5.65988C32.5143 5.42655 32.1309 5.30988 31.7176 5.30988C31.2843 5.30988 30.9309 5.44988 30.6576 5.72988C30.3843 6.00988 30.2476 6.37322 30.2476 6.81988C30.2476 7.26655 30.3843 7.62988 30.6576 7.90988C30.9309 8.18988 31.2843 8.32988 31.7176 8.32988C32.1309 8.32988 32.5143 8.21322 32.8676 7.97988L33.3276 8.80988C32.8543 9.12322 32.3276 9.27988 31.7476 9.27988ZM37.7356 9.15988C37.2222 9.15988 36.9056 8.95988 36.7856 8.55988L36.5556 7.73988C36.4956 7.50655 36.4189 7.34322 36.3256 7.24988C36.2322 7.15655 36.0922 7.10988 35.9056 7.10988H35.4756C35.3489 7.10988 35.2456 7.10322 35.1656 7.08988L35.1556 7.09988C35.1889 7.20655 35.2056 7.34655 35.2056 7.51988V9.12988H34.2256V4.50988H35.2056V5.93988C35.2056 6.09988 35.1889 6.23322 35.1556 6.33988L35.1656 6.34988C35.2456 6.33655 35.3489 6.32988 35.4756 6.32988H35.9056C36.0989 6.32988 36.2356 6.29655 36.3156 6.22988C36.3956 6.15655 36.4789 6.00322 36.5656 5.76988L36.9056 4.94988C37.0322 4.63655 37.3322 4.47988 37.8056 4.47988H38.2956V5.35988H38.0856C37.9389 5.35988 37.8289 5.38322 37.7556 5.42988C37.6889 5.47655 37.6256 5.56988 37.5656 5.70988L37.4056 6.12988C37.2789 6.50322 36.9522 6.69322 36.4256 6.69988V6.73988C36.7189 6.74655 36.9389 6.79655 37.0856 6.88988C37.2389 6.97655 37.3456 7.12655 37.4056 7.33988L37.5956 7.98988C37.6356 8.11655 37.6822 8.19655 37.7356 8.22988C37.7956 8.26322 37.9056 8.27988 38.0656 8.27988H38.3156V9.15988H37.7356ZM41.037 2.22988C41.7436 2.22988 42.3136 2.45988 42.747 2.91988C43.1803 3.37988 43.397 3.98655 43.397 4.73988C43.397 5.23322 43.307 5.68988 43.127 6.10988C42.9536 6.52988 42.6636 6.97655 42.257 7.44988L40.887 9.12988H39.717L41.587 6.85988C41.9203 6.45322 42.1403 6.14322 42.247 5.92988L42.207 5.90988C41.847 6.46988 41.357 6.74988 40.737 6.74988C40.1503 6.74988 39.657 6.53655 39.257 6.10988C38.8636 5.68322 38.667 5.15322 38.667 4.51988C38.667 3.84655 38.887 3.29655 39.327 2.86988C39.767 2.44322 40.337 2.22988 41.037 2.22988ZM41.017 3.12988C40.6103 3.12988 40.287 3.25322 40.047 3.49988C39.807 3.74655 39.687 4.07988 39.687 4.49988C39.687 4.91322 39.8036 5.23655 40.037 5.46988C40.277 5.70322 40.6036 5.81988 41.017 5.81988C41.4436 5.81988 41.777 5.70322 42.017 5.46988C42.257 5.23655 42.377 4.91322 42.377 4.49988C42.377 4.07322 42.257 3.73988 42.017 3.49988C41.777 3.25322 41.4436 3.12988 41.017 3.12988Z" fill="#0B2C62"/>
<rect width="34" height="1" transform="translate(20.537 17.6854)" fill="white"/>
<rect width="34" height="2" transform="translate(20.537 20.6854)" fill="white"/>
</svg>
