<svg width="62" height="37" viewBox="0 0 62 37" fill="none" xmlns="http://www.w3.org/2000/svg">
<path d="M55.2366 8.23938C55.2366 9.05514 54.7576 9.90597 53.7231 10.7486C52.6925 11.588 51.1708 12.3661 49.2462 13.0291C45.4019 14.3535 40.0586 15.1816 34.1332 15.1816C28.2078 15.1816 22.8646 14.3535 19.0202 13.0291C17.0956 12.3661 15.574 11.588 14.5434 10.7486C13.5088 9.90597 13.0299 9.05514 13.0299 8.23938C13.0299 7.42362 13.5088 6.57279 14.5434 5.7302C15.574 4.89079 17.0956 4.11265 19.0202 3.44964C22.8646 2.12528 28.2078 1.29712 34.1332 1.29712C40.0586 1.29712 45.4019 2.12528 49.2462 3.44964C51.1708 4.11265 52.6925 4.89079 53.7231 5.7302C54.7576 6.57279 55.2366 7.42362 55.2366 8.23938Z" fill="#ACCDFF" stroke="#7086A9"/>
<rect x="8.65955" y="5.91626" width="50.921" height="20.2404" fill="#ACCDFF" stroke="#7086A9"/>
<path d="M11.7534 32.0962L8.99512 28.4758H28.6481L26.407 32.0962H11.7534Z" fill="#E8E6ED" stroke="#B1ADC2"/>
<path d="M41.4443 31.9143L38.686 28.2939H58.339L56.0979 31.9143H41.4443Z" fill="#E8E6ED" stroke="#B1ADC2"/>
<circle cx="14.725" cy="32.5804" r="3" fill="#B1ADC2" stroke="#B1ADC2"/>
<circle cx="44.4159" cy="32.3984" r="3" fill="#B1ADC2" stroke="#B1ADC2"/>
<circle cx="22.9182" cy="32.5804" r="3" fill="#B1ADC2" stroke="#B1ADC2"/>
<circle cx="52.6091" cy="32.3984" r="3" fill="#B1ADC2" stroke="#B1ADC2"/>
<rect x="21.896" y="32.0963" width="2.04443" height="0.968384" fill="white"/>
<rect x="51.5869" y="31.9143" width="2.04443" height="0.968384" fill="white"/>
<rect x="13.7028" y="32.0963" width="2.04443" height="0.968384" fill="white"/>
<rect x="43.3937" y="31.9143" width="2.04443" height="0.968384" fill="white"/>
<rect x="6.604" y="26.243" width="54.1947" height="3.18713" fill="#E8E6ED" stroke="#B1ADC2"/>
<rect x="1.20142" y="10.5365" width="15" height="11" fill="#ACCDFF"/>
<rect x="1.20142" y="10.5365" width="15" height="11" stroke="#7086A9"/>
<rect width="8" height="1" transform="matrix(0 -1 1 0 21 26.1124)" fill="#7086A9"/>
<rect width="8" height="2" transform="matrix(0 -1 1 0 24 26.1124)" fill="#7086A9"/>
<rect width="8" height="1" transform="matrix(0 -1 1 0 28 26.1124)" fill="#7086A9"/>
<rect width="8" height="2" transform="matrix(0 -1 1 0 31 26.1124)" fill="#7086A9"/>
<rect width="8" height="1" transform="matrix(0 -1 1 0 35 26.1124)" fill="#7086A9"/>
<rect width="8" height="2" transform="matrix(0 -1 1 0 38 26.1124)" fill="#7086A9"/>
<rect width="8" height="1" transform="matrix(0 -1 1 0 42 26.1124)" fill="#7086A9"/>
<rect width="8" height="2" transform="matrix(0 -1 1 0 45 26.1124)" fill="#7086A9"/>
<rect width="8" height="1" transform="matrix(0 -1 1 0 49 26.1124)" fill="#7086A9"/>
<rect width="8" height="2" transform="matrix(0 -1 1 0 52 26.1124)" fill="#7086A9"/>
<path d="M29.4982 16.1749C28.5782 16.1749 27.8015 15.9916 27.1682 15.6249L27.6382 14.6749C28.2582 15.0016 28.8982 15.1649 29.5582 15.1649C30.4982 15.1649 30.9682 14.7949 30.9682 14.0549C30.9682 13.2616 30.3849 12.8649 29.2182 12.8649H28.2582V11.8449H29.2082C30.2149 11.8449 30.7182 11.4949 30.7182 10.7949C30.7182 10.1882 30.3249 9.8849 29.5382 9.8849C28.9782 9.8849 28.3682 10.0349 27.7082 10.3349L27.3382 9.3649C28.1515 9.03824 28.9249 8.8749 29.6582 8.8749C31.1115 8.8749 31.8382 9.4549 31.8382 10.6149C31.8382 11.4282 31.4649 11.9482 30.7182 12.1749C30.5049 12.2349 30.2782 12.2716 30.0382 12.2849V12.3249C30.3049 12.3249 30.5349 12.3449 30.7282 12.3849C31.6282 12.5849 32.0782 13.1716 32.0782 14.1449C32.0782 15.4982 31.2182 16.1749 29.4982 16.1749ZM34.9937 11.2549C35.667 11.2549 36.157 11.4082 36.4637 11.7149C36.777 12.0149 36.9337 12.4882 36.9337 13.1349V16.0249H35.9437C35.9437 15.7449 35.9903 15.5016 36.0837 15.2949L36.0437 15.2749C35.697 15.8749 35.1803 16.1749 34.4937 16.1749C34.0003 16.1749 33.597 16.0282 33.2837 15.7349C32.977 15.4349 32.8237 15.0416 32.8237 14.5549C32.8237 14.0549 32.977 13.6582 33.2837 13.3649C33.5903 13.0716 33.997 12.9249 34.5037 12.9249C35.197 12.9249 35.707 13.1816 36.0337 13.6949L36.0637 13.6749C36.0303 13.5549 36.0037 13.3416 35.9837 13.0349C35.9437 12.4549 35.587 12.1649 34.9137 12.1649C34.547 12.1649 34.1037 12.2482 33.5837 12.4149L33.3137 11.5349C33.8803 11.3482 34.4403 11.2549 34.9937 11.2549ZM35.6037 13.9649C35.4103 13.8116 35.1637 13.7349 34.8637 13.7349C34.5637 13.7349 34.3203 13.8116 34.1337 13.9649C33.9537 14.1182 33.8637 14.3182 33.8637 14.5649C33.8637 14.8116 33.9537 15.0082 34.1337 15.1549C34.3137 15.3016 34.5537 15.3749 34.8537 15.3749C35.1603 15.3749 35.4103 15.3016 35.6037 15.1549C35.8037 15.0016 35.9037 14.8016 35.9037 14.5549C35.9037 14.3149 35.8037 14.1182 35.6037 13.9649ZM40.8134 11.2549C41.4668 11.2549 42.0034 11.4849 42.4234 11.9449C42.8434 12.4049 43.0534 12.9949 43.0534 13.7149C43.0534 14.4349 42.8434 15.0249 42.4234 15.4849C42.0034 15.9449 41.4668 16.1749 40.8134 16.1749C40.0201 16.1749 39.4534 15.8249 39.1134 15.1249L39.0734 15.1349C39.1334 15.3549 39.1634 15.6782 39.1634 16.1049V18.0249H38.1834V11.4049H39.1334C39.1334 11.8316 39.1134 12.1282 39.0734 12.2949L39.1134 12.3049C39.4601 11.6049 40.0268 11.2549 40.8134 11.2549ZM40.6234 12.1749C40.1834 12.1749 39.8234 12.3182 39.5434 12.6049C39.2634 12.8916 39.1234 13.2616 39.1234 13.7149C39.1234 14.1682 39.2634 14.5382 39.5434 14.8249C39.8234 15.1116 40.1834 15.2549 40.6234 15.2549C41.0568 15.2549 41.3968 15.1182 41.6434 14.8449C41.8901 14.5716 42.0134 14.1949 42.0134 13.7149C42.0134 13.2349 41.8901 12.8582 41.6434 12.5849C41.3968 12.3116 41.0568 12.1749 40.6234 12.1749Z" fill="#2F2E34"/>
</svg>
