<svg width="61" height="36" viewBox="0 0 61 36" fill="none" xmlns="http://www.w3.org/2000/svg">
<path d="M8.18274 8.66614C8.18274 6.18086 10.1975 4.16614 12.6827 4.16614H54.6038C57.089 4.16614 59.1038 6.18086 59.1038 8.66614V25.2528H8.18274V8.66614Z" fill="#0B2C62" stroke="#0B2C62"/>
<path d="M11.2767 31.1924L8.51843 27.572H28.1714L25.9303 31.1924H11.2767Z" fill="#E8E6ED" stroke="#0B2C62"/>
<path d="M40.9677 31.0105L38.2094 27.3901H57.8623L55.6212 31.0105H40.9677Z" fill="#E8E6ED" stroke="#0B2C62"/>
<circle cx="14.2483" cy="31.6766" r="3" fill="#0B2C62" stroke="#0B2C62"/>
<circle cx="43.9392" cy="31.4946" r="3" fill="#0B2C62" stroke="#0B2C62"/>
<circle cx="22.4415" cy="31.6766" r="3" fill="#0B2C62" stroke="#0B2C62"/>
<circle cx="52.1324" cy="31.4946" r="3" fill="#0B2C62" stroke="#0B2C62"/>
<rect x="21.4193" y="31.1925" width="2.04443" height="0.968384" fill="white"/>
<rect x="51.1102" y="31.0105" width="2.04443" height="0.968384" fill="white"/>
<rect x="13.2261" y="31.1925" width="2.04443" height="0.968384" fill="white"/>
<rect x="42.917" y="31.0105" width="2.04443" height="0.968384" fill="white"/>
<rect x="6.12732" y="25.3392" width="54.1947" height="3.18713" fill="#E8E6ED" stroke="#0B2C62"/>
<rect x="0.724731" y="9.63269" width="15" height="11" fill="#15386C"/>
<rect x="0.724731" y="9.63269" width="15" height="11" stroke="#0B2C62"/>
<path d="M32.5415 19.271C31.4282 19.271 30.5249 18.9343 29.8315 18.261C29.1382 17.5876 28.7915 16.7076 28.7915 15.621C28.7915 14.5343 29.1382 13.6543 29.8315 12.981C30.5249 12.3076 31.4282 11.971 32.5415 11.971C33.4749 11.971 34.2982 12.2276 35.0115 12.741L34.3715 13.651C33.8049 13.2376 33.1815 13.031 32.5015 13.031C31.7415 13.031 31.1215 13.271 30.6415 13.751C30.1682 14.231 29.9315 14.8543 29.9315 15.621C29.9315 16.3876 30.1682 17.011 30.6415 17.491C31.1215 17.971 31.7415 18.211 32.5015 18.211C33.1815 18.211 33.8049 18.0043 34.3715 17.591L35.0115 18.501C34.2982 19.0143 33.4749 19.271 32.5415 19.271ZM36.0079 19.121V12.121H38.5979C39.1979 12.121 39.6746 12.281 40.0279 12.601C40.3879 12.921 40.5679 13.3476 40.5679 13.881C40.5679 14.5676 40.2746 15.0276 39.6879 15.261C39.5346 15.3276 39.3679 15.3643 39.1879 15.371V15.411C39.3946 15.411 39.5646 15.431 39.6979 15.471C40.1046 15.5643 40.4213 15.7643 40.6479 16.071C40.8746 16.371 40.9879 16.741 40.9879 17.181C40.9879 17.7676 40.7913 18.2376 40.3979 18.591C40.0113 18.9443 39.4946 19.121 38.8479 19.121H36.0079ZM37.0379 15.071C37.0979 15.0443 37.1813 15.031 37.2879 15.031H38.3279C38.6946 15.031 38.9813 14.9443 39.1879 14.771C39.3946 14.591 39.4979 14.3443 39.4979 14.031C39.4979 13.731 39.4046 13.501 39.2179 13.341C39.0313 13.181 38.7613 13.101 38.4079 13.101H37.2879C37.1813 13.101 37.0979 13.0876 37.0379 13.061L37.0179 13.081C37.0379 13.1343 37.0479 13.221 37.0479 13.341V14.801C37.0479 14.921 37.0379 15.0043 37.0179 15.051L37.0379 15.071ZM37.0379 18.181C37.0979 18.1543 37.1813 18.141 37.2879 18.141H38.6579C39.4846 18.141 39.8979 17.7943 39.8979 17.101C39.8979 16.361 39.4413 15.991 38.5279 15.991H37.2879C37.1813 15.991 37.0979 15.9776 37.0379 15.951L37.0179 15.971C37.0379 16.0176 37.0479 16.101 37.0479 16.221V17.901C37.0479 18.021 37.0379 18.1076 37.0179 18.161L37.0379 18.181Z" fill="white"/>
</svg>
