<svg width="78" height="36" viewBox="0 0 78 36" fill="none" xmlns="http://www.w3.org/2000/svg">
<rect x="24.6653" y="12.0721" width="30.9634" height="13.6807" fill="#B1ADC2"/>
<path d="M17.4407 31.1924L14.6824 27.572H34.3353L32.0942 31.1924H17.4407Z" fill="#E8E6ED" stroke="#0B2C62"/>
<path d="M47.1316 31.0105L44.3733 27.3901H64.0263L61.7851 31.0105H47.1316Z" fill="#E8E6ED" stroke="#0B2C62"/>
<circle cx="20.4122" cy="31.6766" r="3" fill="#0B2C62" stroke="#0B2C62"/>
<circle cx="50.1031" cy="31.4946" r="3" fill="#0B2C62" stroke="#0B2C62"/>
<circle cx="28.6055" cy="31.6766" r="3" fill="#0B2C62" stroke="#0B2C62"/>
<circle cx="58.2964" cy="31.4946" r="3" fill="#0B2C62" stroke="#0B2C62"/>
<rect x="27.5833" y="31.1925" width="2.04443" height="0.968384" fill="white"/>
<rect x="57.2742" y="31.0105" width="2.04443" height="0.968384" fill="white"/>
<rect x="19.39" y="31.1925" width="2.04443" height="0.968384" fill="white"/>
<rect x="49.0809" y="31.0105" width="2.04443" height="0.968384" fill="white"/>
<rect x="12.2913" y="25.3392" width="54.1947" height="3.18713" fill="#E8E6ED" stroke="#0B2C62"/>
<path d="M34.9001 25.1207L24.6916 12.0722" stroke="#0B2C62"/>
<path d="M45.4124 25.1566L54.7961 12.5425" stroke="#0B2C62"/>
<path d="M63.8333 8.06445L77.616 12.259" stroke="#0B2C62"/>
<path d="M17.0515 8.06628L0.912353 12.0721" stroke="#0B2C62"/>
<path d="M35.8704 25.1566L45.2542 12.5425" stroke="#0B2C62"/>
<path d="M1.58325 12.6633L25.1052 12.6633" stroke="#0B2C62"/>
<path d="M54.8586 12.259L77.7317 12.259" stroke="#0B2C62"/>
<rect x="17.4124" y="8.08728" width="46.1138" height="4.07605" fill="white" stroke="#0B2C62"/>
<path d="M45.3733 25.6268L45.3733 7.58728" stroke="#0B2C62"/>
<path d="M55.8352 25.1566L55.8352 8.50171" stroke="#0B2C62"/>
<path d="M25.1052 24.8392L25.1052 8.18433" stroke="#0B2C62"/>
<path d="M35.3352 25.6268L35.3352 7.58728" stroke="#0B2C62"/>
<rect x="1.41235" y="12.0416" width="15" height="11" fill="#15386C"/>
<rect x="1.41235" y="12.0416" width="15" height="11" stroke="#0B2C62"/>
</svg>
