<svg width="61" height="36" viewBox="0 0 61 36" fill="none" xmlns="http://www.w3.org/2000/svg">
<path d="M8.1825 8.63916C8.1825 6.15388 10.1972 4.13916 12.6825 4.13916H54.6035C57.0888 4.13916 59.1035 6.15388 59.1035 8.63916V25.2258H8.1825V8.63916Z" fill="#0B2C62" stroke="#0B2C62"/>
<path d="M11.2767 31.1654L8.51843 27.545H28.1714L25.9303 31.1654H11.2767Z" fill="#E8E6ED" stroke="#0B2C62"/>
<path d="M40.9677 30.9835L38.2094 27.3632H57.8623L55.6212 30.9835H40.9677Z" fill="#E8E6ED" stroke="#0B2C62"/>
<circle cx="14.2483" cy="31.6497" r="3" fill="#0B2C62" stroke="#0B2C62"/>
<circle cx="43.9392" cy="31.4677" r="3" fill="#0B2C62" stroke="#0B2C62"/>
<circle cx="22.4415" cy="31.6497" r="3" fill="#0B2C62" stroke="#0B2C62"/>
<circle cx="52.1324" cy="31.4677" r="3" fill="#0B2C62" stroke="#0B2C62"/>
<rect x="21.4193" y="31.1655" width="2.04443" height="0.968384" fill="white"/>
<rect x="51.1102" y="30.9835" width="2.04443" height="0.968384" fill="white"/>
<rect x="13.2261" y="31.1655" width="2.04443" height="0.968384" fill="white"/>
<rect x="42.917" y="30.9835" width="2.04443" height="0.968384" fill="white"/>
<rect x="6.12732" y="25.3123" width="54.1947" height="3.18713" fill="#E8E6ED" stroke="#0B2C62"/>
<rect x="0.724487" y="8.60571" width="15" height="11" fill="#15386C"/>
<rect x="0.724487" y="8.60571" width="15" height="11" stroke="#0B2C62"/>
</svg>
