<svg width="62" height="36" viewBox="0 0 62 36" fill="none" xmlns="http://www.w3.org/2000/svg">
<rect x="8.38434" y="5.01245" width="50.921" height="20.2404" fill="#B1ADC2" stroke="#0B2C62"/>
<path d="M11.4781 31.1924L8.71979 27.572H28.3728L26.1316 31.1924H11.4781Z" fill="#E8E6ED" stroke="#0B2C62"/>
<path d="M41.169 31.0105L38.4107 27.3901H58.0637L55.8226 31.0105H41.169Z" fill="#E8E6ED" stroke="#0B2C62"/>
<circle cx="14.4496" cy="31.6766" r="3" fill="#0B2C62" stroke="#0B2C62"/>
<circle cx="44.1406" cy="31.4946" r="3" fill="#0B2C62" stroke="#0B2C62"/>
<circle cx="22.6429" cy="31.6766" r="3" fill="#0B2C62" stroke="#0B2C62"/>
<circle cx="52.3338" cy="31.4946" r="3" fill="#0B2C62" stroke="#0B2C62"/>
<rect x="21.6207" y="31.1925" width="2.04443" height="0.968384" fill="white"/>
<rect x="51.3116" y="31.0105" width="2.04443" height="0.968384" fill="white"/>
<rect x="13.4274" y="31.1925" width="2.04443" height="0.968384" fill="white"/>
<rect x="43.1183" y="31.0105" width="2.04443" height="0.968384" fill="white"/>
<rect x="6.32867" y="25.3392" width="54.1947" height="3.18713" fill="#E8E6ED" stroke="#0B2C62"/>
<path d="M49.3336 24.8392L49.3336 4.79199" stroke="#0B2C62"/>
<path d="M18.7027 24.8392L8.71979 4.79199" stroke="#0B2C62"/>
<path d="M28.9376 24.7844L18.7291 4.79199" stroke="#0B2C62"/>
<path d="M49.3336 24.7844L58.8155 5.51245" stroke="#0B2C62"/>
<path d="M39.4498 24.8392L48.8336 5.51245" stroke="#0B2C62"/>
<path d="M39.4107 25.5597L39.4107 5.51245" stroke="#0B2C62"/>
<path d="M29.3726 25.5597L29.3726 5.51245" stroke="#0B2C62"/>
<path d="M18.7291 24.8392L18.7291 4.79199" stroke="#0B2C62"/>
<rect x="1.12067" y="9.62109" width="15" height="11" fill="#15386C"/>
<rect x="1.12067" y="9.62109" width="15" height="11" stroke="#0B2C62"/>
</svg>
