<svg width="61" height="36" viewBox="0 0 61 36" fill="none" xmlns="http://www.w3.org/2000/svg">
<path d="M11.2836 31.1483L8.52527 27.528H28.1782L25.9371 31.1483H11.2836Z" fill="#E8E6ED" stroke="#0B2C62"/>
<path d="M40.9745 30.9664L38.2162 27.3461H57.8692L55.628 30.9664H40.9745Z" fill="#E8E6ED" stroke="#0B2C62"/>
<circle cx="14.2551" cy="31.6326" r="3" fill="#0B2C62" stroke="#0B2C62"/>
<circle cx="43.946" cy="31.4506" r="3" fill="#0B2C62" stroke="#0B2C62"/>
<circle cx="22.4484" cy="31.6326" r="3" fill="#0B2C62" stroke="#0B2C62"/>
<circle cx="52.1393" cy="31.4506" r="3" fill="#0B2C62" stroke="#0B2C62"/>
<rect x="21.4261" y="31.1484" width="2.04443" height="0.968384" fill="white"/>
<rect x="51.1171" y="30.9664" width="2.04443" height="0.968384" fill="white"/>
<rect x="13.2329" y="31.1484" width="2.04443" height="0.968384" fill="white"/>
<rect x="42.9238" y="30.9664" width="2.04443" height="0.968384" fill="white"/>
<rect x="6.13416" y="25.2952" width="54.1947" height="3.18713" fill="#E8E6ED" stroke="#0B2C62"/>
<rect x="26.9174" y="4.15723" width="12.5083" height="2.50012" fill="#0B2C62" stroke="#0B2C62"/>
<rect x="16.3451" y="4.96765" width="3.57275" height="2.1897" fill="#0B2C62"/>
<rect x="46.4242" y="4.73804" width="3.57275" height="2.1897" fill="#0B2C62"/>
<rect x="8.08728" y="6.5625" width="50.2886" height="18.7327" rx="4.5" fill="#0B2C62" stroke="#0B2C62"/>
<rect x="0.731323" y="9.58862" width="15" height="11" fill="#15386C"/>
<rect x="0.731323" y="9.58862" width="15" height="11" stroke="#0B2C62"/>
<rect width="34" height="1" transform="translate(17.537 13.6326)" fill="white"/>
<rect width="34" height="2" transform="translate(17.537 16.6326)" fill="white"/>
</svg>
