<svg width="80" height="36" viewBox="0 0 80 36" fill="none" xmlns="http://www.w3.org/2000/svg">
<path d="M20.9673 30.9894L18.209 27.369H37.862L35.6208 30.9894H20.9673Z" fill="#E8E6ED" stroke="#0B2C62"/>
<path d="M50.6582 30.8075L47.8999 27.1871H67.5529L65.3118 30.8075H50.6582Z" fill="#E8E6ED" stroke="#0B2C62"/>
<circle cx="53.6299" cy="31.2916" r="3" fill="#0B2C62" stroke="#0B2C62"/>
<circle cx="32.1323" cy="31.4736" r="3" fill="#0B2C62" stroke="#0B2C62"/>
<circle cx="61.8228" cy="31.2916" r="3" fill="#0B2C62" stroke="#0B2C62"/>
<rect x="31.1099" y="30.9895" width="2.04443" height="0.968384" fill="white"/>
<rect x="60.8008" y="30.8075" width="2.04443" height="0.968384" fill="white"/>
<circle cx="23.939" cy="31.4736" r="3" fill="#0B2C62" stroke="#0B2C62"/>
<rect x="22.9165" y="30.9895" width="2.04443" height="0.968384" fill="white"/>
<circle cx="9.10693" cy="31.6766" r="3" fill="#0B2C62" stroke="#0B2C62"/>
<rect x="8.08447" y="31.1925" width="2.04443" height="0.968384" fill="white"/>
<rect x="52.6074" y="30.8075" width="2.04443" height="0.968384" fill="white"/>
<rect x="15.8179" y="25.1362" width="54.1947" height="3.18713" fill="#E8E6ED" stroke="#0B2C62"/>
<rect x="1.1748" y="9.74902" width="15" height="11" fill="#15386C"/>
<rect x="1.1748" y="9.74902" width="15" height="11" stroke="#0B2C62"/>
<rect x="1.1748" y="25.1362" width="14.6509" height="3.18713" fill="#E8E6ED" stroke="#0B2C62"/>
<path d="M78.5316 14.1971L73.3246 7.68213C72.945 7.20726 72.3701 6.93079 71.7622 6.93079H69.0175C67.9129 6.93079 67.0175 7.82622 67.0175 8.93079V22.4547C67.0175 23.5593 67.9129 24.4547 69.0175 24.4547H76.9692C78.0738 24.4547 78.9692 23.5593 78.9692 22.4547V15.4458C78.9692 14.992 78.8149 14.5517 78.5316 14.1971Z" fill="#0B2C62" stroke="#0B2C62"/>
<path d="M29.1953 6.93079L68.2925 6.93079" stroke="#0B2C62"/>
<path d="M16.3179 15.4064V24.4958H29.0233V21.6221H53.0686C53.4467 21.6725 54.3542 21.9095 54.9592 22.454C55.5642 22.9985 55.6602 24.0421 55.6326 24.4958H68.2926V19.3935V6.93085H65.0278V15.4064H54.2148V6.93081L47.3861 6.93085V15.4064H29.0233L32.7472 6.93079H20.6596L16.3179 15.4064Z" fill="#B1ADC2" stroke="#0B2C62"/>
<path d="M77.0169 16.4441L72.5583 10.249H70.5127V16.4441H77.0169Z" fill="white"/>
</svg>
