<svg width="62" height="36" viewBox="0 0 62 36" fill="none" xmlns="http://www.w3.org/2000/svg">
<rect x="8.38757" y="4.87219" width="50.921" height="20.2404" fill="#FDF0EF" stroke="#EB5835"/>
<path d="M11.4814 31.0521L8.72314 27.4318H28.3761L26.135 31.0521H11.4814Z" fill="#E8E6ED" stroke="#B1ADC2"/>
<path d="M41.1724 30.8702L38.4141 27.2499H58.067L55.8259 30.8702H41.1724Z" fill="#E8E6ED" stroke="#B1ADC2"/>
<circle cx="14.453" cy="31.5364" r="3" fill="#B1ADC2" stroke="#B1ADC2"/>
<circle cx="44.1439" cy="31.3544" r="3" fill="#B1ADC2" stroke="#B1ADC2"/>
<circle cx="22.6462" cy="31.5364" r="3" fill="#B1ADC2" stroke="#B1ADC2"/>
<circle cx="52.3372" cy="31.3544" r="3" fill="#B1ADC2" stroke="#B1ADC2"/>
<rect x="21.624" y="31.0522" width="2.04443" height="0.968384" fill="white"/>
<rect x="51.3149" y="30.8702" width="2.04443" height="0.968384" fill="white"/>
<rect x="13.4308" y="31.0522" width="2.04443" height="0.968384" fill="white"/>
<rect x="43.1217" y="30.8702" width="2.04443" height="0.968384" fill="white"/>
<rect x="6.33203" y="25.199" width="54.1947" height="3.18713" fill="#E8E6ED" stroke="#B1ADC2"/>
<rect x="1.12402" y="9.48083" width="15" height="11" fill="#FDF0EF"/>
<rect x="1.12402" y="9.48083" width="15" height="11" stroke="#EB5835"/>
</svg>
