<svg width="61" height="37" viewBox="0 0 61 37" fill="none" xmlns="http://www.w3.org/2000/svg">
<path d="M54.7666 8.24756C54.7666 9.06331 54.2877 9.91415 53.2531 10.7567C52.2225 11.5961 50.7009 12.3743 48.7763 13.0373C44.9319 14.3617 39.5887 15.1898 33.6633 15.1898C27.7379 15.1898 22.3946 14.3617 18.5503 13.0373C16.6257 12.3743 15.104 11.5961 14.0734 10.7567C13.0389 9.91415 12.5599 9.06331 12.5599 8.24756C12.5599 7.4318 13.0389 6.58097 14.0734 5.73838C15.104 4.89897 16.6257 4.12083 18.5503 3.45782C22.3946 2.13346 27.7379 1.3053 33.6633 1.3053C39.5887 1.3053 44.9319 2.13346 48.7763 3.45782C50.7009 4.12083 52.2225 4.89897 53.2531 5.73838C54.2877 6.58097 54.7666 7.4318 54.7666 8.24756Z" fill="#B1ADC2" stroke="#0B2C62"/>
<path d="M11.2836 32.1044L8.52527 28.484H28.1782L25.9371 32.1044H11.2836Z" fill="#E8E6ED" stroke="#0B2C62"/>
<path d="M40.9745 31.9225L38.2162 28.3021H57.8692L55.628 31.9225H40.9745Z" fill="#E8E6ED" stroke="#0B2C62"/>
<circle cx="14.2551" cy="32.5886" r="3" fill="#0B2C62" stroke="#0B2C62"/>
<circle cx="43.946" cy="32.4066" r="3" fill="#0B2C62" stroke="#0B2C62"/>
<circle cx="22.4484" cy="32.5886" r="3" fill="#0B2C62" stroke="#0B2C62"/>
<circle cx="52.1393" cy="32.4066" r="3" fill="#0B2C62" stroke="#0B2C62"/>
<rect x="21.4261" y="32.1045" width="2.04443" height="0.968384" fill="white"/>
<rect x="51.1171" y="31.9225" width="2.04443" height="0.968384" fill="white"/>
<rect x="13.2329" y="32.1045" width="2.04443" height="0.968384" fill="white"/>
<rect x="42.9238" y="31.9225" width="2.04443" height="0.968384" fill="white"/>
<rect x="6.13416" y="26.2512" width="54.1947" height="3.18713" fill="#E8E6ED" stroke="#0B2C62"/>
<rect x="14.7186" y="11.782" width="14.6898" height="1.11673" transform="rotate(100.267 14.7186 11.782)" fill="#0B2C62"/>
<path d="M11.62 9.22473V5.73322H56.6603V9.22473H55.4965V12.1343H53.2852V24.0055C50.2204 24.5874 42.1822 25.7512 34.5475 25.7512C26.9127 25.7512 18.1762 24.5874 14.7622 24.0055V12.1343H12.5509V9.22473H11.62Z" fill="#0B2C62" stroke="#0B2C62"/>
<rect width="14.2979" height="1.11673" transform="matrix(-0.178232 -0.983988 -0.983988 0.178232 57.0477 26.1302)" fill="#0B2C62"/>
<rect x="0.731323" y="10.5447" width="15" height="11" fill="#15386C"/>
<rect x="0.731323" y="10.5447" width="15" height="11" stroke="#0B2C62"/><path d="M25.1281 17.1231C24.8548 17.1231 24.5715 17.1064 24.2781 17.0731L24.2881 16.0631C24.5481 16.1097 24.8148 16.1331 25.0881 16.1331C25.5015 16.1331 25.8381 15.8497 26.0981 15.2831L23.4981 10.0331H24.7381L26.2181 13.2531C26.4715 13.7997 26.6148 14.1797 26.6481 14.3931H26.6881C26.7281 14.0264 26.8348 13.6364 27.0081 13.2231L28.4281 10.0331H29.6081L27.1481 15.4631C26.9081 16.0364 26.6248 16.4564 26.2981 16.7231C25.9781 16.9897 25.5881 17.1231 25.1281 17.1231ZM31.7471 17.1831C30.9938 17.1831 30.3804 16.9564 29.9071 16.5031C29.4404 16.0431 29.2071 15.4497 29.2071 14.7231C29.2071 13.9964 29.4404 13.4064 29.9071 12.9531C30.3804 12.4931 30.9938 12.2631 31.7471 12.2631C32.3271 12.2631 32.8538 12.4197 33.3271 12.7331L32.8671 13.5631C32.5138 13.3297 32.1304 13.2131 31.7171 13.2131C31.2838 13.2131 30.9304 13.3531 30.6571 13.6331C30.3838 13.9131 30.2471 14.2764 30.2471 14.7231C30.2471 15.1697 30.3838 15.5331 30.6571 15.8131C30.9304 16.0931 31.2838 16.2331 31.7171 16.2331C32.1304 16.2331 32.5138 16.1164 32.8671 15.8831L33.3271 16.7131C32.8538 17.0264 32.3271 17.1831 31.7471 17.1831ZM37.7351 17.0631C37.2217 17.0631 36.9051 16.8631 36.7851 16.4631L36.5551 15.6431C36.4951 15.4097 36.4184 15.2464 36.3251 15.1531C36.2317 15.0597 36.0917 15.0131 35.9051 15.0131H35.4751C35.3484 15.0131 35.2451 15.0064 35.1651 14.9931L35.1551 15.0031C35.1884 15.1097 35.2051 15.2497 35.2051 15.4231V17.0331H34.2251V12.4131H35.2051V13.8431C35.2051 14.0031 35.1884 14.1364 35.1551 14.2431L35.1651 14.2531C35.2451 14.2397 35.3484 14.2331 35.4751 14.2331H35.9051C36.0984 14.2331 36.2351 14.1997 36.3151 14.1331C36.3951 14.0597 36.4784 13.9064 36.5651 13.6731L36.9051 12.8531C37.0317 12.5397 37.3317 12.3831 37.8051 12.3831H38.2951V13.2631H38.0851C37.9384 13.2631 37.8284 13.2864 37.7551 13.3331C37.6884 13.3797 37.6251 13.4731 37.5651 13.6131L37.4051 14.0331C37.2784 14.4064 36.9517 14.5964 36.4251 14.6031V14.6431C36.7184 14.6497 36.9384 14.6997 37.0851 14.7931C37.2384 14.8797 37.3451 15.0297 37.4051 15.2431L37.5951 15.8931C37.6351 16.0197 37.6817 16.0997 37.7351 16.1331C37.7951 16.1664 37.9051 16.1831 38.0651 16.1831H38.3151V17.0631H37.7351ZM41.0365 10.1331C41.7431 10.1331 42.3131 10.3631 42.7465 10.8231C43.1798 11.2831 43.3965 11.8897 43.3965 12.6431C43.3965 13.1364 43.3065 13.5931 43.1265 14.0131C42.9531 14.4331 42.6631 14.8797 42.2565 15.3531L40.8865 17.0331H39.7165L41.5865 14.7631C41.9198 14.3564 42.1398 14.0464 42.2465 13.8331L42.2065 13.8131C41.8465 14.3731 41.3565 14.6531 40.7365 14.6531C40.1498 14.6531 39.6565 14.4397 39.2565 14.0131C38.8631 13.5864 38.6665 13.0564 38.6665 12.4231C38.6665 11.7497 38.8865 11.1997 39.3265 10.7731C39.7665 10.3464 40.3365 10.1331 41.0365 10.1331ZM41.0165 11.0331C40.6098 11.0331 40.2865 11.1564 40.0465 11.4031C39.8065 11.6497 39.6865 11.9831 39.6865 12.4031C39.6865 12.8164 39.8031 13.1397 40.0365 13.3731C40.2765 13.6064 40.6031 13.7231 41.0165 13.7231C41.4431 13.7231 41.7765 13.6064 42.0165 13.3731C42.2565 13.1397 42.3765 12.8164 42.3765 12.4031C42.3765 11.9764 42.2565 11.6431 42.0165 11.4031C41.7765 11.1564 41.4431 11.0331 41.0165 11.0331Z" fill="white"/>
<rect width="34" height="1" transform="translate(17.537 18.5886)" fill="white"/>
<rect width="34" height="2" transform="translate(17.537 21.5886)" fill="white"/>
</svg>
