<svg width="23" height="26" viewBox="0 0 23 26" fill="none" xmlns="http://www.w3.org/2000/svg">
<g filter="url(#filter0_d_357_51459)">
<path fill-rule="evenodd" clip-rule="evenodd" d="M7.75 3.75V3C7.75 2.40326 7.98705 1.83097 8.40901 1.40901C8.83097 0.987053 9.40326 0.75 10 0.75H13C13.5967 0.75 14.169 0.987053 14.591 1.40901C15.0129 1.83097 15.25 2.40326 15.25 3V3.75H18.25C18.6642 3.75 19 4.08579 19 4.5C19 4.91421 18.6642 5.25 18.25 5.25H17.5V15C17.5 15.5967 17.2629 16.169 16.841 16.591C16.419 17.0129 15.8467 17.25 15.25 17.25H7.75C7.15326 17.25 6.58097 17.0129 6.15901 16.591C5.73705 16.169 5.5 15.5967 5.5 15V5.25H4.75C4.33579 5.25 4 4.91421 4 4.5C4 4.08579 4.33579 3.75 4.75 3.75H7.75ZM9.46967 2.46967C9.61032 2.32902 9.80109 2.25 10 2.25H13C13.1989 2.25 13.3897 2.32902 13.5303 2.46967C13.671 2.61032 13.75 2.80109 13.75 3V3.75H9.25V3C9.25 2.80109 9.32902 2.61032 9.46967 2.46967ZM7 5.25V15C7 15.1989 7.07902 15.3897 7.21967 15.5303C7.36032 15.671 7.55109 15.75 7.75 15.75H15.25C15.4489 15.75 15.6397 15.671 15.7803 15.5303C15.921 15.3897 16 15.1989 16 15V5.25H7Z" fill="#AFAFAF"/>
</g>
</svg>
