<svg width="19" height="19" viewBox="0 0 19 19" fill="none" xmlns="http://www.w3.org/2000/svg">
<path fill-rule="evenodd" clip-rule="evenodd" d="M15.084 2.77209C14.9039 2.77209 14.7256 2.80756 14.5592 2.87648C14.3928 2.9454 14.2417 3.04641 14.1143 3.17375L4.13017 13.1579L3.40292 15.8245L6.06951 15.0972L16.0537 5.11309C16.181 4.98575 16.282 4.83457 16.3509 4.6682C16.4199 4.50182 16.4553 4.3235 16.4553 4.14341C16.4553 3.96333 16.4199 3.78501 16.3509 3.61863C16.282 3.45226 16.181 3.30108 16.0537 3.17375C15.9263 3.04641 15.7752 2.9454 15.6088 2.87648C15.4424 2.80756 15.2641 2.77209 15.084 2.77209ZM13.9852 1.49066C14.3336 1.34636 14.7069 1.27209 15.084 1.27209C15.4611 1.27209 15.8344 1.34636 16.1828 1.49066C16.5312 1.63496 16.8477 1.84646 17.1143 2.11308C17.381 2.37971 17.5925 2.69624 17.7368 3.04461C17.8811 3.39297 17.9553 3.76635 17.9553 4.14341C17.9553 4.52048 17.8811 4.89385 17.7368 5.24222C17.5925 5.59059 17.381 5.90712 17.1143 6.17374L6.98933 16.2987C6.89704 16.391 6.78226 16.4576 6.65634 16.492L2.53134 17.617C2.27168 17.6878 1.99398 17.6141 1.80367 17.4237C1.61336 17.2334 1.53961 16.9557 1.61043 16.6961L2.73543 12.5711C2.76977 12.4452 2.83638 12.3304 2.92867 12.2381L13.0537 2.11308C13.3203 1.84646 13.6368 1.63496 13.9852 1.49066Z" fill="#AFAFAF"/>
</svg>
