<svg width="396" height="80" viewBox="0 0 396 80" fill="none" xmlns="http://www.w3.org/2000/svg">
<path d="M159.242 -0.000244141H141.829V3.57061H159.242V-0.000244141Z" fill="#FCB53B"/>
<path d="M159.242 7.21387H141.829V10.7847H159.242V7.21387Z" fill="#F57F29"/>
<path d="M159.242 14.4287H141.829V17.9996H159.242V14.4287Z" fill="#E32213"/>
<path d="M166.22 -0.000244141V17.9998H180.531V14.4289H169.675V10.7852H180.531V7.21433H169.675V3.57061H180.531V-0.000244141H166.22Z" fill="black"/>
<path fill-rule="evenodd" clip-rule="evenodd" d="M224.24 -0.000244141L217.543 17.9998H221.561L222.9 14.356H231.007L232.347 17.9269H236.295L229.175 -0.000244141H224.24ZM226.919 3.57061L229.668 10.7852H224.169L226.919 3.57061Z" fill="black"/>
<path d="M238.692 17.9994V14.2828H247.997C248.914 14.2828 249.689 13.4812 249.689 12.5339C249.689 11.5865 248.914 10.7849 247.997 10.7849H240.454V7.21402H247.997C248.914 7.21402 249.689 6.4124 249.689 5.46503C249.689 4.51766 248.914 3.71604 247.997 3.71604H238.692V0.0723178H248.138C250.958 0.0723178 253.355 2.47718 253.355 5.39216C253.355 6.77677 253.073 7.94276 251.24 9.03588C252.862 9.91037 253.355 11.295 253.355 12.6796C253.355 16.0318 250.958 17.9994 248.138 17.9994H238.692Z" fill="black"/>
<path fill-rule="evenodd" clip-rule="evenodd" d="M212.748 -0.000244141H203.161V17.9998H206.615V10.7852H212.748C215.639 10.7852 217.965 8.38032 217.965 5.39247C217.965 2.40461 215.639 -0.000244141 212.748 -0.000244141ZM212.607 7.21433H206.615V3.64348H212.607C213.524 3.64348 214.299 4.4451 214.299 5.39247C214.299 6.41271 213.524 7.21433 212.607 7.21433Z" fill="black"/>
<path fill-rule="evenodd" clip-rule="evenodd" d="M199.425 5.31959C199.425 6.70421 199.143 7.8702 197.31 8.96332C198.931 9.91069 199.566 11.2953 199.636 12.6799C199.636 16.0321 197.239 17.9998 194.42 17.9998H184.691V-0.000244141H194.208C197.028 -0.000244141 199.425 2.40461 199.425 5.31959ZM193.997 3.64348H188.145V7.14146H193.997C194.913 7.14146 195.689 6.33984 195.689 5.39247C195.689 4.4451 194.913 3.64348 193.997 3.64348ZM188.145 14.356H194.208C195.195 14.356 195.971 13.5544 195.9 12.5342C195.9 11.5868 195.125 10.7852 194.208 10.7852H188.145V14.356Z" fill="black"/>
<path d="M21.9481 38.4307C23.3806 35.7061 26.2051 34 29.2833 34H31.0923L6.90699 80H0.0922852L21.9481 38.4307Z" fill="#EF7812"/>
<path d="M30.977 38.558C32.3854 35.7632 35.248 34.0002 38.3776 34.0002H39.0923V80.0002H10.0923L30.977 38.558Z" fill="#F7F7F9"/>
<rect width="329" height="46" transform="translate(39.0923 34)" fill="#F7F7F9"/>
<rect width="262" height="46" transform="translate(72.5923 34)" fill="#F7F7F9"/>
<path d="M99.3237 63H97.0122L96.0542 60.1436H91.4399L90.4995 63H88.6538L92.6353 51.0029H95.2983L99.3237 63ZM95.4741 58.4121L93.7251 53.0596L91.9761 58.4121H95.4741ZM102.936 63H100.774V51.0029H105.687C107.087 51.0029 108.125 51.3574 108.798 52.0664C109.478 52.7695 109.818 53.6016 109.818 54.5625C109.818 55.6582 109.452 56.5459 108.719 57.2256C107.987 57.9053 107.058 58.2451 105.933 58.2451H102.936V63ZM102.936 56.3906H105.494C106.162 56.3906 106.671 56.2266 107.023 55.8984C107.375 55.5703 107.55 55.1338 107.55 54.5889C107.55 54.0967 107.386 53.6748 107.058 53.3232C106.736 52.9717 106.15 52.7959 105.3 52.7959H102.936V56.3906ZM123.335 63H121.129V52.4971L117.807 63H116.673L113.333 52.4971V63H111.567V51.0029H114.951L117.464 58.7285L119.934 51.0029H123.335V63ZM129.901 61.4443L131.984 54.123H135.236L137.082 61.4443H137.89V65.0391H136.589L136.352 63H130.63L130.393 65.0391H129.092V61.4443H129.901ZM131.509 61.4443H135.078L133.75 55.6787H133.03L131.509 61.4443ZM141.037 62.1035V63H139.033V54.123H141.037V57.9814C141.037 58.5615 141.022 59.1797 140.993 59.8359C141.286 59.3613 141.708 58.7812 142.258 58.0957L144.535 55.2656V54.123H146.539V63H144.535V59.3525C144.535 58.626 144.555 57.9873 144.596 57.4365C144.315 57.8936 143.928 58.4326 143.436 59.0537L141.037 62.1035ZM154.071 59.7393L155.793 59.915C155.571 61.0283 155.14 61.8516 154.501 62.3848C153.863 62.918 153.092 63.1846 152.19 63.1846C150.965 63.1846 150.022 62.7393 149.36 61.8486C148.704 60.9521 148.375 59.8564 148.375 58.5615C148.375 57.2256 148.736 56.1211 149.457 55.248C150.177 54.375 151.138 53.9385 152.339 53.9385C154.273 53.9385 155.424 54.958 155.793 56.9971L154.071 57.2344C153.918 56.1328 153.376 55.582 152.445 55.582C151.765 55.582 151.27 55.8809 150.959 56.4785C150.655 57.0703 150.502 57.7881 150.502 58.6318C150.502 59.5283 150.661 60.2197 150.977 60.7061C151.299 61.1924 151.748 61.4355 152.322 61.4355C153.201 61.4355 153.784 60.8701 154.071 59.7393ZM157.323 63V54.123H164.416V63H162.412V55.5732H159.327V63H157.323ZM172.466 60.1699L174.277 60.416C174.042 61.2188 173.585 61.8809 172.906 62.4023C172.226 62.9238 171.374 63.1846 170.348 63.1846C169.118 63.1846 168.127 62.7715 167.377 61.9453C166.627 61.1191 166.252 60 166.252 58.5879C166.252 57.2461 166.63 56.1357 167.386 55.2568C168.142 54.3779 169.167 53.9385 170.462 53.9385C171.728 53.9385 172.707 54.3721 173.398 55.2393C174.089 56.1064 174.435 57.2197 174.435 58.5791L174.426 58.8076H168.335C168.335 59.4111 168.391 59.8945 168.502 60.2578C168.62 60.6211 168.848 60.9375 169.188 61.207C169.528 61.4766 169.953 61.6113 170.462 61.6113C171.453 61.6113 172.121 61.1309 172.466 60.1699ZM172.343 57.5156C172.337 56.877 172.144 56.3555 171.763 55.9512C171.388 55.5469 170.922 55.3447 170.366 55.3447C169.815 55.3447 169.355 55.5352 168.986 55.916C168.617 56.291 168.4 56.8242 168.335 57.5156H172.343ZM177.432 63V55.6787H174.971V54.123H181.862V55.6787H179.436V63H177.432ZM187.627 63V59.5107C186.971 60.0264 186.204 60.2842 185.325 60.2842C184.493 60.2842 183.842 60.0645 183.374 59.625C182.905 59.1855 182.67 58.5615 182.67 57.7529V54.123H184.674V57.4717C184.674 58.251 185.117 58.6406 186.001 58.6406C186.617 58.6406 187.159 58.5205 187.627 58.2803V54.123H189.631V63H187.627ZM197.691 60.1699L199.501 60.416C199.267 61.2188 198.81 61.8809 198.13 62.4023C197.451 62.9238 196.598 63.1846 195.573 63.1846C194.342 63.1846 193.352 62.7715 192.602 61.9453C191.852 61.1191 191.477 60 191.477 58.5879C191.477 57.2461 191.855 56.1357 192.611 55.2568C193.367 54.3779 194.392 53.9385 195.687 53.9385C196.953 53.9385 197.931 54.3721 198.623 55.2393C199.314 56.1064 199.66 57.2197 199.66 58.5791L199.651 58.8076H193.56C193.56 59.4111 193.616 59.8945 193.727 60.2578C193.844 60.6211 194.073 60.9375 194.413 61.207C194.752 61.4766 195.177 61.6113 195.687 61.6113C196.677 61.6113 197.345 61.1309 197.691 60.1699ZM197.568 57.5156C197.562 56.877 197.369 56.3555 196.988 55.9512C196.613 55.5469 196.147 55.3447 195.59 55.3447C195.04 55.3447 194.58 55.5352 194.21 55.916C193.841 56.291 193.625 56.8242 193.56 57.5156H197.568ZM203.527 65.9971H201.488V54.123H203.404V55.6699C204.019 54.5156 204.924 53.9385 206.12 53.9385C207.104 53.9385 207.889 54.3662 208.475 55.2217C209.061 56.0771 209.354 57.1699 209.354 58.5C209.354 59.7598 209.073 60.8555 208.51 61.7871C207.954 62.7188 207.122 63.1846 206.014 63.1846C204.872 63.1846 204.042 62.71 203.527 61.7607V65.9971ZM203.527 59.3613C203.527 60.0059 203.717 60.542 204.098 60.9697C204.485 61.3916 204.913 61.6025 205.381 61.6025C206.02 61.6025 206.486 61.3242 206.779 60.7676C207.078 60.2051 207.227 59.4932 207.227 58.6318C207.227 57.7295 207.078 56.9971 206.779 56.4346C206.48 55.8662 206.035 55.582 205.443 55.582C204.91 55.582 204.456 55.8135 204.081 56.2764C203.711 56.7393 203.527 57.3457 203.527 58.0957V59.3613ZM218.785 63H216.877C216.708 62.4609 216.605 61.8633 216.57 61.207C216.037 62.5254 215.035 63.1846 213.564 63.1846C212.679 63.1846 211.967 62.9268 211.428 62.4111C210.895 61.8896 210.628 61.2363 210.628 60.4512C210.628 58.4121 212.418 57.3926 215.999 57.3926C216.139 57.3926 216.33 57.3955 216.57 57.4014V56.7334C216.57 55.8135 215.943 55.3535 214.689 55.3535C213.47 55.3535 212.779 55.8135 212.615 56.7334L210.91 56.4785C211.003 55.7402 211.384 55.1338 212.052 54.6592C212.72 54.1787 213.687 53.9385 214.953 53.9385C215.638 53.9385 216.198 53.9971 216.631 54.1143C217.065 54.2256 217.431 54.4189 217.73 54.6943C218.029 54.9639 218.234 55.2598 218.345 55.582C218.462 55.8984 218.521 56.4375 218.521 57.1992V61.207C218.521 61.7871 218.609 62.3848 218.785 63ZM216.57 58.4824C213.98 58.4824 212.685 59.1006 212.685 60.3369C212.685 60.7061 212.814 61.0225 213.072 61.2861C213.335 61.5439 213.731 61.6729 214.258 61.6729C215.02 61.6729 215.594 61.4326 215.981 60.9521C216.374 60.4658 216.57 59.915 216.57 59.2998V58.4824ZM234.886 56.1533L239.316 63H236.899L233.243 57.3662L232.548 57.5771V63H230.492V57.5771L229.789 57.3662L226.141 63H224.014L228.163 56.751L224.331 51.0029H226.704L230.043 56.0303L230.492 56.1533V51.0029H232.548V56.1533L232.997 56.0303L236.336 51.0029H238.463L234.886 56.1533ZM239.553 61.1367L242.717 51.0029H245.943L248.791 61.1367H249.669V65.5225H248.167L247.903 63H240.441L240.177 65.5225H238.674V61.1367H239.553ZM241.399 61.1367H246.505L244.422 53.0156H243.772L241.399 61.1367ZM260.418 59.7393L262.141 59.915C261.918 61.0283 261.488 61.8516 260.849 62.3848C260.21 62.918 259.44 63.1846 258.538 63.1846C257.313 63.1846 256.37 62.7393 255.708 61.8486C255.051 60.9521 254.723 59.8564 254.723 58.5615C254.723 57.2256 255.083 56.1211 255.804 55.248C256.525 54.375 257.486 53.9385 258.687 53.9385C260.621 53.9385 261.772 54.958 262.141 56.9971L260.418 57.2344C260.266 56.1328 259.724 55.582 258.792 55.582C258.113 55.582 257.618 55.8809 257.307 56.4785C257.002 57.0703 256.85 57.7881 256.85 58.6318C256.85 59.5283 257.008 60.2197 257.325 60.7061C257.647 61.1924 258.095 61.4355 258.669 61.4355C259.548 61.4355 260.131 60.8701 260.418 59.7393ZM264.848 63V55.6787H262.387V54.123H269.278V55.6787H266.852V63H264.848ZM277.988 63H276.081C275.911 62.4609 275.808 61.8633 275.773 61.207C275.24 62.5254 274.238 63.1846 272.767 63.1846C271.882 63.1846 271.17 62.9268 270.631 62.4111C270.098 61.8896 269.832 61.2363 269.832 60.4512C269.832 58.4121 271.622 57.3926 275.202 57.3926C275.342 57.3926 275.533 57.3955 275.773 57.4014V56.7334C275.773 55.8135 275.146 55.3535 273.892 55.3535C272.673 55.3535 271.982 55.8135 271.818 56.7334L270.113 56.4785C270.207 55.7402 270.587 55.1338 271.255 54.6592C271.923 54.1787 272.89 53.9385 274.156 53.9385C274.841 53.9385 275.401 53.9971 275.834 54.1143C276.268 54.2256 276.634 54.4189 276.933 54.6943C277.232 54.9639 277.437 55.2598 277.548 55.582C277.666 55.8984 277.724 56.4375 277.724 57.1992V61.207C277.724 61.7871 277.812 62.3848 277.988 63ZM275.773 58.4824C273.183 58.4824 271.888 59.1006 271.888 60.3369C271.888 60.7061 272.017 61.0225 272.275 61.2861C272.539 61.5439 272.934 61.6729 273.461 61.6729C274.223 61.6729 274.797 61.4326 275.184 60.9521C275.577 60.4658 275.773 59.915 275.773 59.2998V58.4824ZM280.124 63V54.123H282.127V57.542H285.599V54.123H287.603V63H285.599V59.0977H282.127V63H280.124ZM290.011 63V54.123H292.015V61.4443H295.223V54.123H297.227V61.4443H298.545V65.0391H297.227L296.99 63H290.011ZM301.753 62.1035V63H299.75V54.123H301.753V57.9814C301.753 58.5615 301.739 59.1797 301.709 59.8359C302.002 59.3613 302.424 58.7812 302.975 58.0957L305.251 55.2656V54.123H307.255V63H305.251V59.3525C305.251 58.626 305.272 57.9873 305.313 57.4365C305.032 57.8936 304.645 58.4326 304.153 59.0537L301.753 62.1035ZM311.667 62.1035V63H309.664V54.123H311.667V57.9814C311.667 58.5615 311.653 59.1797 311.624 59.8359C311.917 59.3613 312.338 58.7812 312.889 58.0957L315.166 55.2656V54.123H317.169V63H315.166V59.3525C315.166 58.626 315.186 57.9873 315.227 57.4365C314.946 57.8936 314.559 58.4326 314.067 59.0537L311.667 62.1035Z" fill="#2F2E34"/>
<path d="M395.092 53.9675V34H368.092V80H369.06C383.437 80 395.092 68.3448 395.092 53.9675Z" fill="#F7F7F9"/>
</svg>
