<svg width="61" height="36" viewBox="0 0 61 36" fill="none" xmlns="http://www.w3.org/2000/svg">
<rect x="8.36047" y="15.5249" width="50.921" height="9.63171" fill="#FCDBCB" stroke="#EB5835"/>
<path d="M11.4547 31.0962L8.69641 27.4758H28.3494L26.1083 31.0962H11.4547Z" fill="#E8E6ED" stroke="#B1ADC2"/>
<path d="M41.1456 30.9143L38.3873 27.2939H58.0403L55.7992 30.9143H41.1456Z" fill="#E8E6ED" stroke="#B1ADC2"/>
<circle cx="14.4264" cy="31.5804" r="3" fill="#B1ADC2" stroke="#B1ADC2"/>
<circle cx="44.1173" cy="31.3984" r="3" fill="#B1ADC2" stroke="#B1ADC2"/>
<circle cx="22.6198" cy="31.5804" r="3" fill="#B1ADC2" stroke="#B1ADC2"/>
<circle cx="52.3102" cy="31.3984" r="3" fill="#B1ADC2" stroke="#B1ADC2"/>
<rect x="21.5973" y="31.0963" width="2.04443" height="0.968384" fill="white"/>
<rect x="51.2882" y="30.9143" width="2.04443" height="0.968384" fill="white"/>
<rect x="13.4039" y="31.0963" width="2.04443" height="0.968384" fill="white"/>
<rect x="43.0948" y="30.9143" width="2.04443" height="0.968384" fill="white"/>
<rect x="6.3053" y="25.243" width="54.1947" height="3.18713" fill="#E8E6ED" stroke="#B1ADC2"/>
<circle cx="18.4264" cy="24.5804" r="3" fill="#EB5835" stroke="#EB5835"/>
<rect x="17.4039" y="24.0963" width="2.04443" height="0.968384" fill="white"/>
<circle cx="33.1173" cy="24.3984" r="3" fill="#EB5835" stroke="#EB5835"/>
<rect x="32.0948" y="23.9143" width="2.04443" height="0.968384" fill="white"/>
<circle cx="48.3102" cy="24.3984" r="3" fill="#EB5835" stroke="#EB5835"/>
<rect x="47.2882" y="23.9143" width="2.04443" height="0.968384" fill="white"/>
<rect x="0.902466" y="8.5365" width="15" height="11" fill="#FCDBCB"/>
<rect x="0.902466" y="8.5365" width="15" height="11" stroke="#EB5835"/>
<rect width="30" height="2" transform="translate(18.5221 17.5804)" fill="#EB5835"/>
</svg>
