<svg width="61" height="36" viewBox="0 0 61 36" fill="none" xmlns="http://www.w3.org/2000/svg">
<path d="M11.4547 31.0962L8.69641 27.4758H28.3494L26.1083 31.0962H11.4547Z" fill="#E8E6ED" stroke="#B1ADC2"/>
<path d="M41.1456 30.9143L38.3873 27.2939H58.0403L55.7992 30.9143H41.1456Z" fill="#E8E6ED" stroke="#B1ADC2"/>
<circle cx="14.4263" cy="31.5804" r="3" fill="#B1ADC2" stroke="#B1ADC2"/>
<circle cx="44.1172" cy="31.3984" r="3" fill="#B1ADC2" stroke="#B1ADC2"/>
<circle cx="22.6195" cy="31.5804" r="3" fill="#B1ADC2" stroke="#B1ADC2"/>
<circle cx="52.3104" cy="31.3984" r="3" fill="#B1ADC2" stroke="#B1ADC2"/>
<rect x="21.5973" y="31.0963" width="2.04443" height="0.968384" fill="white"/>
<rect x="51.2882" y="30.9143" width="2.04443" height="0.968384" fill="white"/>
<rect x="13.4041" y="31.0963" width="2.04443" height="0.968384" fill="white"/>
<rect x="43.095" y="30.9143" width="2.04443" height="0.968384" fill="white"/>
<rect x="6.3053" y="25.243" width="54.1947" height="3.18713" fill="#E8E6ED" stroke="#B1ADC2"/>
<rect x="14.8898" y="10.7739" width="14.6898" height="1.11673" transform="rotate(100.267 14.8898 10.7739)" fill="#EB5835"/>
<path d="M11.7911 8.21655V4.72504H56.8315V8.21655H55.6676V11.1261H53.4564V22.9973C50.3916 23.5792 42.3534 24.743 34.7186 24.743C27.0838 24.743 18.3473 23.5792 14.9334 22.9973V11.1261H12.7221V8.21655H11.7911Z" fill="#FCDBCB" stroke="#EB5835"/>
<rect width="14.2979" height="1.11673" transform="matrix(-0.178232 -0.983988 -0.983988 0.178232 57.2189 25.122)" fill="#EB5835"/>
<rect x="0.902466" y="8.5365" width="15" height="11" fill="#FCDBCB"/>
<rect x="0.902466" y="8.5365" width="15" height="11" stroke="#EB5835"/>
</svg>
