<svg width="86" height="36" viewBox="0 0 86 36" fill="none" xmlns="http://www.w3.org/2000/svg">
<path d="M17.49 31.1924L14.7317 27.572H34.3847L32.1435 31.1924H17.49Z" fill="#E8E6ED" stroke="#0B2C62"/>
<path d="M47.1809 31.0105L44.4226 27.3901H64.0756L61.8345 31.0105H47.1809Z" fill="#E8E6ED" stroke="#0B2C62"/>
<circle cx="20.4615" cy="31.6766" r="3" fill="#0B2C62" stroke="#0B2C62"/>
<circle cx="50.1525" cy="31.4946" r="3" fill="#0B2C62" stroke="#0B2C62"/>
<circle cx="28.6548" cy="31.6766" r="3" fill="#0B2C62" stroke="#0B2C62"/>
<circle cx="58.3457" cy="31.4946" r="3" fill="#0B2C62" stroke="#0B2C62"/>
<rect x="27.6326" y="31.1925" width="2.04443" height="0.968384" fill="white"/>
<rect x="57.3235" y="31.0105" width="2.04443" height="0.968384" fill="white"/>
<rect x="19.4393" y="31.1925" width="2.04443" height="0.968384" fill="white"/>
<rect x="49.1302" y="31.0105" width="2.04443" height="0.968384" fill="white"/>
<rect x="12.3406" y="25.3392" width="54.1947" height="3.18713" fill="#E8E6ED" stroke="#0B2C62"/>
<path d="M79.6541 30.0105V7.18787C79.6541 6.0833 78.7586 5.18787 77.6541 5.18787H61.3679C60.2634 5.18787 59.3679 6.0833 59.3679 7.18787V23.815C59.3679 24.488 59.7064 25.1158 60.2686 25.4858L69.6843 31.6813C70.0107 31.896 70.3929 32.0105 70.7836 32.0105H77.6541C78.7586 32.0105 79.6541 31.1151 79.6541 30.0105Z" fill="white" stroke="#0B2C62"/>
<path d="M50.6188 17.9079L42.4615 11.9626H3.61012V25.6939H63.9181L70.2519 31.734H79.5154V17.9079H50.6188Z" fill="white" stroke="#0B2C62"/>
<path d="M73.7082 26.7566V18.1844H79.7917V23.8518L84.8219 29.7932L84.822 34.1674H73.7082L42.7377 14.4829H34.7186V10.027H1.67417V8.64441H42.7377L60.5734 20.5349L61.2647 19.7053L69.5604 25.5123L73.7082 26.7566Z" fill="#B1ADC2" stroke="#0B2C62"/>
<rect x="1.53491" y="8.58813" width="15" height="11" fill="#15386C"/>
<rect x="1.53491" y="8.58813" width="15" height="11" stroke="#0B2C62"/>
<rect x="72.5125" y="7.58813" width="5" height="5" rx="1.5" fill="#B1ADC2" stroke="#0B2C62"/>
</svg>
