<svg width="61" height="37" viewBox="0 0 61 37" fill="none" xmlns="http://www.w3.org/2000/svg">
<path d="M54.7666 8.31519C54.7666 9.13094 54.2877 9.98177 53.2531 10.8244C52.2225 11.6638 50.7009 12.4419 48.7763 13.1049C44.9319 14.4293 39.5887 15.2574 33.6633 15.2574C27.7379 15.2574 22.3946 14.4293 18.5503 13.1049C16.6257 12.4419 15.104 11.6638 14.0734 10.8244C13.0389 9.98177 12.5599 9.13094 12.5599 8.31519C12.5599 7.49943 13.0389 6.6486 14.0734 5.806C15.104 4.9666 16.6257 4.18846 18.5503 3.52545C22.3946 2.20108 27.7379 1.37292 33.6633 1.37292C39.5887 1.37292 44.9319 2.20108 48.7763 3.52545C50.7009 4.18846 52.2225 4.9666 53.2531 5.806C54.2877 6.6486 54.7666 7.49943 54.7666 8.31519Z" fill="#B1ADC2" stroke="#0B2C62"/>
<path d="M11.2836 32.172L8.52527 28.5516H28.1782L25.9371 32.172H11.2836Z" fill="#E8E6ED" stroke="#0B2C62"/>
<path d="M40.9745 31.9901L38.2162 28.3698H57.8692L55.628 31.9901H40.9745Z" fill="#E8E6ED" stroke="#0B2C62"/>
<circle cx="14.2551" cy="32.6562" r="3" fill="#0B2C62" stroke="#0B2C62"/>
<circle cx="43.946" cy="32.4742" r="3" fill="#0B2C62" stroke="#0B2C62"/>
<circle cx="22.4484" cy="32.6562" r="3" fill="#0B2C62" stroke="#0B2C62"/>
<circle cx="52.1393" cy="32.4742" r="3" fill="#0B2C62" stroke="#0B2C62"/>
<rect x="21.4261" y="32.1721" width="2.04443" height="0.968384" fill="white"/>
<rect x="51.1171" y="31.9901" width="2.04443" height="0.968384" fill="white"/>
<rect x="13.2329" y="32.1721" width="2.04443" height="0.968384" fill="white"/>
<rect x="42.9238" y="31.9901" width="2.04443" height="0.968384" fill="white"/>
<rect x="6.13416" y="26.3188" width="54.1947" height="3.18713" fill="#E8E6ED" stroke="#0B2C62"/>
<rect x="14.7186" y="11.8497" width="14.6898" height="1.11673" transform="rotate(100.267 14.7186 11.8497)" fill="#0B2C62"/>
<path d="M11.62 9.29236V5.80084H56.6603V9.29236H55.4965V12.2019H53.2852V24.0731C50.2204 24.655 42.1822 25.8188 34.5475 25.8188C26.9127 25.8188 18.1762 24.655 14.7622 24.0731V12.2019H12.5509V9.29236H11.62Z" fill="#0B2C62" stroke="#0B2C62"/>
<rect width="14.2979" height="1.11673" transform="matrix(-0.178232 -0.983988 -0.983988 0.178232 57.0477 26.1978)" fill="#0B2C62"/>
<rect x="0.731323" y="10.6123" width="15" height="11" fill="#15386C"/>
<rect x="0.731323" y="10.6123" width="15" height="11" stroke="#0B2C62"/>
<path d="M28.0281 17.2507C27.1081 17.2507 26.3315 17.0674 25.6981 16.7007L26.1681 15.7507C26.7881 16.0774 27.4281 16.2407 28.0881 16.2407C29.0281 16.2407 29.4981 15.8707 29.4981 15.1307C29.4981 14.3374 28.9148 13.9407 27.7481 13.9407H26.7881V12.9207H27.7381C28.7448 12.9207 29.2481 12.5707 29.2481 11.8707C29.2481 11.264 28.8548 10.9607 28.0681 10.9607C27.5081 10.9607 26.8981 11.1107 26.2381 11.4107L25.8681 10.4407C26.6815 10.114 27.4548 9.95071 28.1881 9.95071C29.6415 9.95071 30.3681 10.5307 30.3681 11.6907C30.3681 12.504 29.9948 13.024 29.2481 13.2507C29.0348 13.3107 28.8081 13.3474 28.5681 13.3607V13.4007C28.8348 13.4007 29.0648 13.4207 29.2581 13.4607C30.1581 13.6607 30.6081 14.2474 30.6081 15.2207C30.6081 16.574 29.7481 17.2507 28.0281 17.2507ZM33.5236 12.3307C34.1969 12.3307 34.6869 12.484 34.9936 12.7907C35.3069 13.0907 35.4636 13.564 35.4636 14.2107V17.1007H34.4736C34.4736 16.8207 34.5203 16.5774 34.6136 16.3707L34.5736 16.3507C34.2269 16.9507 33.7103 17.2507 33.0236 17.2507C32.5303 17.2507 32.1269 17.104 31.8136 16.8107C31.5069 16.5107 31.3536 16.1174 31.3536 15.6307C31.3536 15.1307 31.5069 14.734 31.8136 14.4407C32.1203 14.1474 32.5269 14.0007 33.0336 14.0007C33.7269 14.0007 34.2369 14.2574 34.5636 14.7707L34.5936 14.7507C34.5603 14.6307 34.5336 14.4174 34.5136 14.1107C34.4736 13.5307 34.1169 13.2407 33.4436 13.2407C33.0769 13.2407 32.6336 13.324 32.1136 13.4907L31.8436 12.6107C32.4103 12.424 32.9703 12.3307 33.5236 12.3307ZM34.1336 15.0407C33.9403 14.8874 33.6936 14.8107 33.3936 14.8107C33.0936 14.8107 32.8503 14.8874 32.6636 15.0407C32.4836 15.194 32.3936 15.394 32.3936 15.6407C32.3936 15.8874 32.4836 16.084 32.6636 16.2307C32.8436 16.3774 33.0836 16.4507 33.3836 16.4507C33.6903 16.4507 33.9403 16.3774 34.1336 16.2307C34.3336 16.0774 34.4336 15.8774 34.4336 15.6307C34.4336 15.3907 34.3336 15.194 34.1336 15.0407ZM39.3434 12.3307C39.9967 12.3307 40.5334 12.5607 40.9534 13.0207C41.3734 13.4807 41.5834 14.0707 41.5834 14.7907C41.5834 15.5107 41.3734 16.1007 40.9534 16.5607C40.5334 17.0207 39.9967 17.2507 39.3434 17.2507C38.55 17.2507 37.9834 16.9007 37.6434 16.2007L37.6034 16.2107C37.6634 16.4307 37.6934 16.754 37.6934 17.1807V19.1007H36.7134V12.4807H37.6634C37.6634 12.9074 37.6434 13.204 37.6034 13.3707L37.6434 13.3807C37.99 12.6807 38.5567 12.3307 39.3434 12.3307ZM39.1534 13.2507C38.7134 13.2507 38.3534 13.394 38.0734 13.6807C37.7934 13.9674 37.6534 14.3374 37.6534 14.7907C37.6534 15.244 37.7934 15.614 38.0734 15.9007C38.3534 16.1874 38.7134 16.3307 39.1534 16.3307C39.5867 16.3307 39.9267 16.194 40.1734 15.9207C40.42 15.6474 40.5434 15.2707 40.5434 14.7907C40.5434 14.3107 40.42 13.934 40.1734 13.6607C39.9267 13.3874 39.5867 13.2507 39.1534 13.2507Z" fill="white"/>
<rect width="5" height="1" transform="matrix(0 -1 1 0 17.8221 25.1562)" fill="white"/>
<rect width="5" height="2" transform="matrix(0 -1 1 0 20.8221 25.1562)" fill="white"/>
<rect width="5" height="1" transform="matrix(0 -1 1 0 24.8221 25.1562)" fill="white"/>
<rect width="5" height="2" transform="matrix(0 -1 1 0 27.8221 25.1562)" fill="white"/>
<rect width="5" height="1" transform="matrix(0 -1 1 0 31.8221 25.1562)" fill="white"/>
<rect width="5" height="2" transform="matrix(0 -1 1 0 34.8221 25.1562)" fill="white"/>
<rect width="5" height="1" transform="matrix(0 -1 1 0 38.8221 25.1562)" fill="white"/>
<rect width="5" height="2" transform="matrix(0 -1 1 0 41.8221 25.1562)" fill="white"/>
<rect width="5" height="1" transform="matrix(0 -1 1 0 45.8221 25.1562)" fill="white"/>
<rect width="5" height="2" transform="matrix(0 -1 1 0 48.8221 25.1562)" fill="white"/>
</svg>
