<svg width="62" height="36" viewBox="0 0 62 36" fill="none" xmlns="http://www.w3.org/2000/svg">
<rect x="8.63721" y="4.86414" width="50.921" height="20.2404" fill="#C8F4C1" stroke="#6EA566"/>
<path d="M11.7312 31.0441L8.9729 27.4237H28.6259L26.3847 31.0441H11.7312Z" fill="#E8E6ED" stroke="#B1ADC2"/>
<path d="M41.4221 30.8622L38.6638 27.2418H58.3168L56.0757 30.8622H41.4221Z" fill="#E8E6ED" stroke="#B1ADC2"/>
<circle cx="14.7026" cy="31.5283" r="3" fill="#B1ADC2" stroke="#B1ADC2"/>
<circle cx="44.3936" cy="31.3463" r="3" fill="#B1ADC2" stroke="#B1ADC2"/>
<circle cx="22.896" cy="31.5283" r="3" fill="#B1ADC2" stroke="#B1ADC2"/>
<circle cx="52.5869" cy="31.3463" r="3" fill="#B1ADC2" stroke="#B1ADC2"/>
<rect x="21.8738" y="31.0442" width="2.04443" height="0.968384" fill="white"/>
<rect x="51.5647" y="30.8622" width="2.04443" height="0.968384" fill="white"/>
<rect x="13.6807" y="31.0442" width="2.04443" height="0.968384" fill="white"/>
<rect x="43.3716" y="30.8622" width="2.04443" height="0.968384" fill="white"/>
<rect x="6.58179" y="25.1909" width="54.1947" height="3.18713" fill="#E8E6ED" stroke="#B1ADC2"/>
<rect x="1.37378" y="9.47278" width="15" height="11" fill="#C8F4C1"/>
<rect x="1.37378" y="9.47278" width="15" height="11" stroke="#6EA566"/>
</svg>
