<svg width="61" height="37" viewBox="0 0 61 37" fill="none" xmlns="http://www.w3.org/2000/svg">
<path d="M54.9377 8.23938C54.9377 9.05514 54.4588 9.90597 53.4243 10.7486C52.3937 11.588 50.872 12.3661 48.9474 13.0291C45.1031 14.3535 39.7598 15.1816 33.8344 15.1816C27.909 15.1816 22.5658 14.3535 18.7214 13.0291C16.7968 12.3661 15.2751 11.588 14.2445 10.7486C13.21 9.90597 12.7311 9.05514 12.7311 8.23938C12.7311 7.42362 13.21 6.57279 14.2445 5.7302C15.2751 4.89079 16.7968 4.11265 18.7214 3.44964C22.5658 2.12528 27.909 1.29712 33.8344 1.29712C39.7598 1.29712 45.1031 2.12528 48.9474 3.44964C50.872 4.11265 52.3937 4.89079 53.4243 5.7302C54.4588 6.57279 54.9377 7.42362 54.9377 8.23938Z" fill="#C5AAFF" stroke="#7B336F"/>
<path d="M11.4547 32.0962L8.69641 28.4758H28.3494L26.1083 32.0962H11.4547Z" fill="#E8E6ED" stroke="#B1ADC2"/>
<path d="M41.1456 31.9143L38.3873 28.2939H58.0403L55.7992 31.9143H41.1456Z" fill="#E8E6ED" stroke="#B1ADC2"/>
<circle cx="14.4263" cy="32.5804" r="3" fill="#B1ADC2" stroke="#B1ADC2"/>
<circle cx="44.1172" cy="32.3984" r="3" fill="#B1ADC2" stroke="#B1ADC2"/>
<circle cx="22.6195" cy="32.5804" r="3" fill="#B1ADC2" stroke="#B1ADC2"/>
<circle cx="52.3104" cy="32.3984" r="3" fill="#B1ADC2" stroke="#B1ADC2"/>
<rect x="21.5973" y="32.0963" width="2.04443" height="0.968384" fill="white"/>
<rect x="51.2882" y="31.9143" width="2.04443" height="0.968384" fill="white"/>
<rect x="13.4041" y="32.0963" width="2.04443" height="0.968384" fill="white"/>
<rect x="43.095" y="31.9143" width="2.04443" height="0.968384" fill="white"/>
<rect x="6.3053" y="26.243" width="54.1947" height="3.18713" fill="#E8E6ED" stroke="#B1ADC2"/>
<rect x="14.8898" y="11.7739" width="14.6898" height="1.11673" transform="rotate(100.267 14.8898 11.7739)" fill="#7B336F"/>
<path d="M11.7911 9.21655V5.72504H56.8315V9.21655H55.6676V12.1261H53.4564V23.9973C50.3916 24.5792 42.3534 25.743 34.7186 25.743C27.0838 25.743 18.3473 24.5792 14.9334 23.9973V12.1261H12.7221V9.21655H11.7911Z" fill="#C5AAFF" stroke="#7B336F"/>
<rect width="14.2979" height="1.11673" transform="matrix(-0.178232 -0.983988 -0.983988 0.178232 57.2189 26.122)" fill="#7B336F"/>
<rect x="0.902466" y="9.5365" width="15" height="11" fill="#C5AAFF"/>
<rect x="0.902466" y="9.5365" width="15" height="11" stroke="#7B336F"/>
<path d="M25.2993 17.1149C25.0259 17.1149 24.7426 17.0982 24.4493 17.0649L24.4593 16.0549C24.7193 16.1016 24.9859 16.1249 25.2593 16.1249C25.6726 16.1249 26.0093 15.8416 26.2693 15.2749L23.6693 10.0249H24.9093L26.3893 13.2449C26.6426 13.7916 26.7859 14.1716 26.8193 14.3849H26.8593C26.8993 14.0182 27.0059 13.6282 27.1793 13.2149L28.5993 10.0249H29.7793L27.3193 15.4549C27.0793 16.0282 26.7959 16.4482 26.4693 16.7149C26.1493 16.9816 25.7593 17.1149 25.2993 17.1149ZM31.9182 17.1749C31.1649 17.1749 30.5516 16.9482 30.0782 16.4949C29.6116 16.0349 29.3782 15.4416 29.3782 14.7149C29.3782 13.9882 29.6116 13.3982 30.0782 12.9449C30.5516 12.4849 31.1649 12.2549 31.9182 12.2549C32.4982 12.2549 33.0249 12.4116 33.4982 12.7249L33.0382 13.5549C32.6849 13.3216 32.3016 13.2049 31.8882 13.2049C31.4549 13.2049 31.1016 13.3449 30.8282 13.6249C30.5549 13.9049 30.4182 14.2682 30.4182 14.7149C30.4182 15.1616 30.5549 15.5249 30.8282 15.8049C31.1016 16.0849 31.4549 16.2249 31.8882 16.2249C32.3016 16.2249 32.6849 16.1082 33.0382 15.8749L33.4982 16.7049C33.0249 17.0182 32.4982 17.1749 31.9182 17.1749ZM37.9062 17.0549C37.3929 17.0549 37.0762 16.8549 36.9562 16.4549L36.7262 15.6349C36.6662 15.4016 36.5895 15.2382 36.4962 15.1449C36.4029 15.0516 36.2629 15.0049 36.0762 15.0049H35.6462C35.5195 15.0049 35.4162 14.9982 35.3362 14.9849L35.3262 14.9949C35.3595 15.1016 35.3762 15.2416 35.3762 15.4149V17.0249H34.3962V12.4049H35.3762V13.8349C35.3762 13.9949 35.3595 14.1282 35.3262 14.2349L35.3362 14.2449C35.4162 14.2316 35.5195 14.2249 35.6462 14.2249H36.0762C36.2695 14.2249 36.4062 14.1916 36.4862 14.1249C36.5662 14.0516 36.6495 13.8982 36.7362 13.6649L37.0762 12.8449C37.2029 12.5316 37.5029 12.3749 37.9762 12.3749H38.4662V13.2549H38.2562C38.1095 13.2549 37.9995 13.2782 37.9262 13.3249C37.8595 13.3716 37.7962 13.4649 37.7362 13.6049L37.5762 14.0249C37.4495 14.3982 37.1229 14.5882 36.5962 14.5949V14.6349C36.8895 14.6416 37.1095 14.6916 37.2562 14.7849C37.4095 14.8716 37.5162 15.0216 37.5762 15.2349L37.7662 15.8849C37.8062 16.0116 37.8529 16.0916 37.9062 16.1249C37.9662 16.1582 38.0762 16.1749 38.2362 16.1749H38.4862V17.0549H37.9062ZM41.2076 10.1249C41.9143 10.1249 42.4843 10.3549 42.9176 10.8149C43.351 11.2749 43.5676 11.8816 43.5676 12.6349C43.5676 13.1282 43.4776 13.5849 43.2976 14.0049C43.1243 14.4249 42.8343 14.8716 42.4276 15.3449L41.0576 17.0249H39.8876L41.7576 14.7549C42.091 14.3482 42.311 14.0382 42.4176 13.8249L42.3776 13.8049C42.0176 14.3649 41.5276 14.6449 40.9076 14.6449C40.321 14.6449 39.8276 14.4316 39.4276 14.0049C39.0343 13.5782 38.8376 13.0482 38.8376 12.4149C38.8376 11.7416 39.0576 11.1916 39.4976 10.7649C39.9376 10.3382 40.5076 10.1249 41.2076 10.1249ZM41.1876 11.0249C40.781 11.0249 40.4576 11.1482 40.2176 11.3949C39.9776 11.6416 39.8576 11.9749 39.8576 12.3949C39.8576 12.8082 39.9743 13.1316 40.2076 13.3649C40.4476 13.5982 40.7743 13.7149 41.1876 13.7149C41.6143 13.7149 41.9476 13.5982 42.1876 13.3649C42.4276 13.1316 42.5476 12.8082 42.5476 12.3949C42.5476 11.9682 42.4276 11.6349 42.1876 11.3949C41.9476 11.1482 41.6143 11.0249 41.1876 11.0249Z" fill="#2F2E34"/>
<rect width="34" height="1" transform="translate(17.7081 18.5804)" fill="#7B336F"/>
<rect width="34" height="2" transform="translate(17.7081 21.5804)" fill="#7B336F"/>
</svg>
