<svg width="77" height="36" viewBox="0 0 77 36" fill="none" xmlns="http://www.w3.org/2000/svg">
<path d="M23.707 4.82654C23.707 3.85202 24.497 3.06201 25.4716 3.06201H26.8029C27.7774 3.06201 28.5674 3.85202 28.5674 4.82654H23.707Z" fill="#0B2C62"/>
<path d="M75.9146 19.5453C75.9146 20.379 75.2387 21.0548 74.405 21.0548C73.5713 21.0548 72.8955 20.379 72.8955 19.5453L72.8955 16.7788L75.9146 16.7788L75.9146 19.5453Z" fill="#0B2C62"/>
<path d="M44.4719 10.6566L40.0445 5.71317C39.6651 5.28956 39.1233 5.04749 38.5546 5.04749H21.1621C20.0576 5.04749 19.1621 5.94292 19.1621 7.04749V19.9006C19.1621 21.0051 20.0576 21.9006 21.1621 21.9006H32.0951H42.982C44.0865 21.9006 44.9819 21.0051 44.982 19.9006L44.982 11.9909C44.982 11.4985 44.8004 11.0234 44.4719 10.6566Z" fill="#0B2C62" stroke="#0B2C62"/>
<path d="M9.58691 31.1924L6.82861 27.572H26.4816L24.2405 31.1924H9.58691Z" fill="#E8E6ED" stroke="#0B2C62"/>
<path d="M39.2778 31.0105L36.5195 27.3901H56.1725L53.9314 31.0105H39.2778Z" fill="#E8E6ED" stroke="#0B2C62"/>
<circle cx="12.5585" cy="31.6766" r="3" fill="#0B2C62" stroke="#0B2C62"/>
<circle cx="42.2494" cy="31.4946" r="3" fill="#0B2C62" stroke="#0B2C62"/>
<circle cx="20.7517" cy="31.6766" r="3" fill="#0B2C62" stroke="#0B2C62"/>
<circle cx="50.4426" cy="31.4946" r="3" fill="#0B2C62" stroke="#0B2C62"/>
<rect x="19.7295" y="31.1925" width="2.04443" height="0.968384" fill="white"/>
<rect x="49.4204" y="31.0105" width="2.04443" height="0.968384" fill="white"/>
<rect x="11.5363" y="31.1925" width="2.04443" height="0.968384" fill="white"/>
<rect x="41.2272" y="31.0105" width="2.04443" height="0.968384" fill="white"/>
<rect x="4.4375" y="25.3392" width="54.1947" height="3.18713" fill="#E8E6ED" stroke="#0B2C62"/>
<path d="M41.111 13.6634L37.2406 8.06738H32.4204V13.6634H41.111Z" fill="white" stroke="white"/>
<path d="M28.9339 13.6766V7.97864H23.3403V13.6766H28.9339Z" fill="white" stroke="white"/>
<rect x="1.22949" y="9.62109" width="15" height="11" fill="#15386C"/>
<rect x="1.22949" y="9.62109" width="15" height="11" stroke="#0B2C62"/>
<path d="M19.1621 18.5912L44.9819 18.5912" stroke="white"/>
<rect x="24.7441" y="22.6211" width="14.6509" height="2.37268" fill="#B1ADC2" stroke="#0B2C62"/>
<path d="M75.2798 4.7611L44.9819 15.334V18.5916L75.2798 7.41018V4.7611Z" fill="#B1ADC2" stroke="#0B2C62"/>
<path d="M26.1777 3.39832L58.9691 3.39844L74.4055 6.38832V18.9044" stroke="#0B2C62"/>
<path d="M74.3692 20.1925V22.4322L73.2134 23.0825L73.2134 24.6105C73.2134 24.8828 73.5981 25.6084 74.3692 25.6084C75.1404 25.6084 75.5977 25.1651 75.5977 24.6105C75.5977 24.0558 75.2957 23.7543 75.1753 23.6339" stroke="#0B2C62"/>
</svg>
