<svg width="61" height="36" viewBox="0 0 61 36" fill="none" xmlns="http://www.w3.org/2000/svg">
<rect x="8.33105" y="4.86414" width="50.921" height="20.2404" fill="#BCF3FF" stroke="#2988AE"/>
<path d="M11.425 31.0441L8.66675 27.4237H28.3197L26.0786 31.0441H11.425Z" fill="#E8E6ED" stroke="#B1ADC2"/>
<path d="M41.116 30.8622L38.3577 27.2418H58.0106L55.7695 30.8622H41.116Z" fill="#E8E6ED" stroke="#B1ADC2"/>
<circle cx="14.3965" cy="31.5283" r="3" fill="#B1ADC2" stroke="#B1ADC2"/>
<circle cx="44.0874" cy="31.3463" r="3" fill="#B1ADC2" stroke="#B1ADC2"/>
<circle cx="22.5898" cy="31.5283" r="3" fill="#B1ADC2" stroke="#B1ADC2"/>
<circle cx="52.2808" cy="31.3463" r="3" fill="#B1ADC2" stroke="#B1ADC2"/>
<rect x="21.5676" y="31.0442" width="2.04443" height="0.968384" fill="white"/>
<rect x="51.2585" y="30.8622" width="2.04443" height="0.968384" fill="white"/>
<rect x="13.3745" y="31.0442" width="2.04443" height="0.968384" fill="white"/>
<rect x="43.0654" y="30.8622" width="2.04443" height="0.968384" fill="white"/>
<rect x="6.27563" y="25.1909" width="54.1947" height="3.18713" fill="#E8E6ED" stroke="#B1ADC2"/>
<rect x="1.06763" y="9.47278" width="15" height="11" fill="#BCF3FF"/>
<rect x="1.06763" y="9.47278" width="15" height="11" stroke="#2988AE"/>
</svg>
