<svg width="62" height="36" viewBox="0 0 62 36" fill="none" xmlns="http://www.w3.org/2000/svg">
<rect x="8.42542" y="4.86414" width="50.921" height="20.2404" fill="#ABABAB" stroke="#6E6E6D"/>
<path d="M11.5193 31.0441L8.76099 27.4237H28.414L26.1728 31.0441H11.5193Z" fill="#E8E6ED" stroke="#B1ADC2"/>
<path d="M41.2102 30.8622L38.4519 27.2418H58.1049L55.8638 30.8622H41.2102Z" fill="#E8E6ED" stroke="#B1ADC2"/>
<circle cx="14.4908" cy="31.5283" r="3" fill="#B1ADC2" stroke="#B1ADC2"/>
<circle cx="44.1818" cy="31.3463" r="3" fill="#B1ADC2" stroke="#B1ADC2"/>
<circle cx="22.6841" cy="31.5283" r="3" fill="#B1ADC2" stroke="#B1ADC2"/>
<circle cx="52.375" cy="31.3463" r="3" fill="#B1ADC2" stroke="#B1ADC2"/>
<rect x="21.6619" y="31.0442" width="2.04443" height="0.968384" fill="white"/>
<rect x="51.3528" y="30.8622" width="2.04443" height="0.968384" fill="white"/>
<rect x="13.4686" y="31.0442" width="2.04443" height="0.968384" fill="white"/>
<rect x="43.1595" y="30.8622" width="2.04443" height="0.968384" fill="white"/>
<rect x="6.36987" y="25.1909" width="54.1947" height="3.18713" fill="#E8E6ED" stroke="#B1ADC2"/>
<rect x="1.16187" y="9.47278" width="15" height="11" fill="#ABABAB"/>
<rect x="1.16187" y="9.47278" width="15" height="11" stroke="#6E6E6D"/>
</svg>
