<svg width="61" height="36" viewBox="0 0 61 36" fill="none" xmlns="http://www.w3.org/2000/svg">
<rect x="8.35022" y="4.87219" width="50.921" height="20.2404" fill="#ACCDFF" stroke="#7086A9"/>
<path d="M11.4441 31.0521L8.68579 27.4318H28.3388L26.0976 31.0521H11.4441Z" fill="#E8E6ED" stroke="#B1ADC2"/>
<path d="M41.135 30.8702L38.3767 27.2499H58.0297L55.7886 30.8702H41.135Z" fill="#E8E6ED" stroke="#B1ADC2"/>
<circle cx="14.4156" cy="31.5364" r="3" fill="#B1ADC2" stroke="#B1ADC2"/>
<circle cx="44.1066" cy="31.3544" r="3" fill="#B1ADC2" stroke="#B1ADC2"/>
<circle cx="22.6089" cy="31.5364" r="3" fill="#B1ADC2" stroke="#B1ADC2"/>
<circle cx="52.2998" cy="31.3544" r="3" fill="#B1ADC2" stroke="#B1ADC2"/>
<rect x="21.5867" y="31.0522" width="2.04443" height="0.968384" fill="white"/>
<rect x="51.2776" y="30.8702" width="2.04443" height="0.968384" fill="white"/>
<rect x="13.3934" y="31.0522" width="2.04443" height="0.968384" fill="white"/>
<rect x="43.0844" y="30.8702" width="2.04443" height="0.968384" fill="white"/>
<rect x="6.29468" y="25.199" width="54.1947" height="3.18713" fill="#E8E6ED" stroke="#B1ADC2"/>
<rect x="1.08667" y="9.48083" width="15" height="11" fill="#ACCDFF"/>
<rect x="1.08667" y="9.48083" width="15" height="11" stroke="#7086A9"/>
</svg>
