<svg width="62" height="36" viewBox="0 0 62 36" fill="none" xmlns="http://www.w3.org/2000/svg">
<rect x="8.59973" y="5.82446" width="50.921" height="20.2404" fill="#C5AAFF" stroke="#8E4D9B"/>
<path d="M11.6936 32.0044L8.9353 28.384H28.5883L26.3472 32.0044H11.6936Z" fill="#E8E6ED" stroke="#B1ADC2"/>
<path d="M41.3845 31.8225L38.6262 28.2021H58.2792L56.0381 31.8225H41.3845Z" fill="#E8E6ED" stroke="#B1ADC2"/>
<circle cx="14.6652" cy="32.4886" r="3" fill="#B1ADC2" stroke="#B1ADC2"/>
<circle cx="44.3561" cy="32.3066" r="3" fill="#B1ADC2" stroke="#B1ADC2"/>
<circle cx="22.8584" cy="32.4886" r="3" fill="#B1ADC2" stroke="#B1ADC2"/>
<circle cx="52.5493" cy="32.3066" r="3" fill="#B1ADC2" stroke="#B1ADC2"/>
<rect x="21.8362" y="32.0045" width="2.04443" height="0.968384" fill="white"/>
<rect x="51.5271" y="31.8225" width="2.04443" height="0.968384" fill="white"/>
<rect x="13.6429" y="32.0045" width="2.04443" height="0.968384" fill="white"/>
<rect x="43.3339" y="31.8225" width="2.04443" height="0.968384" fill="white"/>
<rect x="6.54419" y="26.1512" width="54.1947" height="3.18713" fill="#E8E6ED" stroke="#B1ADC2"/>
<rect x="1.33618" y="10.4331" width="15" height="11" fill="#C5AAFF"/>
<rect x="1.33618" y="10.4331" width="15" height="11" stroke="#8E4D9B"/>
</svg>
